<svg id="Layer_1" data-name="Layer 1" xmlns="http://www.w3.org/2000/svg" viewBox="0 0 321.2 133.04"><defs><style>.cls-1{fill:#fff;}.cls-2{font-size:16.7px;font-family:Narin-Regular, Narin;}.cls-2,.cls-3{fill:#233771;}.cls-4{fill:#25356e;}</style></defs><rect class="cls-1" x="0.5" y="0.5" width="320.2" height="132.04"/><path class="cls-1" d="M320.2,1V132H1V1H320.2m1-1H0V133H321.2V0Z"/><text class="cls-2" transform="translate(268.81 77.14)">®</text><path class="cls-3" d="M81.36,59.39A1.73,1.73,0,0,1,84,59.22l6.49,5.65a1.71,1.71,0,0,1,.17,2.36A30.78,30.78,0,0,1,67.11,78a30.29,30.29,0,1,1,0-60.57,30.78,30.78,0,0,1,23.53,10.8,1.7,1.7,0,0,1-.17,2.36L84,36.27a1.73,1.73,0,0,1-2.62-.16,19.22,19.22,0,0,0-14.25-6.67c-9.87,0-17.47,7.59-17.47,18.31s7.6,18.3,17.47,18.3A19.21,19.21,0,0,0,81.36,59.39Z"/><path class="cls-3" d="M157.88,47.75a30.29,30.29,0,1,1-30.29-30.29A30.15,30.15,0,0,1,157.88,47.75Zm-12.82,0c0-10.72-7.68-18.31-17.47-18.31S110.13,37,110.13,47.75s7.59,18.3,17.46,18.3S145.06,58.46,145.06,47.75Z"/><path class="cls-3" d="M200,45.47a15,15,0,0,1,8.94,14.09c0,10.63-8.27,17.71-18.06,17.71H169.27a1.59,1.59,0,0,1-1.69-1.68V19.91a1.6,1.6,0,0,1,1.69-1.69h21.59c8.95,0,16,6.33,16,15.52A13.12,13.12,0,0,1,200,45.47ZM180.4,40.58h8c2.87,0,5.9-1.86,5.9-5.57A5.08,5.08,0,0,0,189,30H180.4Zm15.86,18.13c0-4.47-3.54-6.75-7.59-6.75H180.4v13.5h8.95A6.59,6.59,0,0,0,196.26,58.71Z"/><path class="cls-3" d="M231.44,19.91V75.59a1.59,1.59,0,0,1-1.68,1.68h-9.45a1.59,1.59,0,0,1-1.69-1.68V19.91a1.6,1.6,0,0,1,1.69-1.69h9.45A1.59,1.59,0,0,1,231.44,19.91Z"/><path class="cls-3" d="M267,75.59a1.59,1.59,0,0,1-1.69,1.68h-9.45a1.59,1.59,0,0,1-1.68-1.68V30H241.48a1.6,1.6,0,0,1-1.69-1.69V19.91a1.6,1.6,0,0,1,1.69-1.69h38.13a1.6,1.6,0,0,1,1.69,1.69v8.43A1.6,1.6,0,0,1,279.61,30H267Z"/><path class="cls-4" d="M92.13,111.69V93.33h2.41v18.36Z"/><path class="cls-4" d="M98.7,106.22h2.44c0,2.65.89,3.75,3.44,3.75,2.12,0,3.19-1.07,3.19-3.22,0-1.85-1.21-2.73-3.49-3.51l-1.55-.57a12.62,12.62,0,0,1-1.37-.67c-1.48-.83-2.2-2-2.34-4.1a4.32,4.32,0,0,1,1.48-3.38,5.75,5.75,0,0,1,4-1.35c3.25,0,5.23,1.88,5.23,5.08h-2.44c0-2.12-.94-3.17-2.79-3.17-2,0-3,1.07-3,2.76s1.15,2.53,3.32,3.28l1.29.45c.3.11.7.27,1.21.51a5,5,0,0,1,1.18.73,4.41,4.41,0,0,1,1.77,3.78c0,3.12-2.12,5.32-5.66,5.32C100.66,111.91,98.7,110,98.7,106.22Z"/><path class="cls-4" d="M122.45,111.69l-1.29-4.75h-5.63l-1.29,4.75h-2.58L117,93.33h2.63L125,111.69Zm-6.36-6.76h4.51l-2.25-8.29Z"/><path class="cls-4" d="M125.78,102.67q0-9.54,6.6-9.55c3.41,0,5.56,1.93,5.64,5.88h-2.47c-.11-2.53-1.15-3.79-3.17-3.79-2.76,0-4.08,2.12-4.08,7.46q0,7.1,4.11,7.09c2,0,3.11-1.32,3.25-4h2.47c-.14,4.26-2.37,6.12-5.72,6.12C128,111.91,125.78,108.71,125.78,102.67Z"/><path class="cls-4" d="M149.67,111.69l-1.29-4.75h-5.64l-1.29,4.75h-2.57l5.37-18.36h2.63l5.36,18.36Zm-6.36-6.76h4.51l-2.26-8.29Z"/><path class="cls-4" d="M57.54,112.21l6.15-19.46H66l6.54,19.46H70.07l-1.86-5.89H61.5l-1.73,5.89Zm4.58-8h5.43L65.9,98.83c-.52-1.65-.89-3-1.13-4a28.68,28.68,0,0,1-.88,3.72Z"/><path class="cls-4" d="M73.88,112.21V98.11h1.77v2a4.54,4.54,0,0,1,1.55-1.73,4,4,0,0,1,2.12-.58,4.07,4.07,0,0,1,1.71.37,3.48,3.48,0,0,1,1.28,1,3.89,3.89,0,0,1,.72,1.53,12.71,12.71,0,0,1,.24,2.89v8.67h-2v-8.58a7.07,7.07,0,0,0-.26-2.28,2.34,2.34,0,0,0-.83-1.11,2.25,2.25,0,0,0-1.31-.39,2.71,2.71,0,0,0-2.24,1.05,5.88,5.88,0,0,0-.84,3.6v7.71Z"/><path class="cls-4" d="M159.21,112.21V92.75H170v2.3h-8.65v6h7.49v2.3h-7.49v8.84Z"/><path class="cls-4" d="M172.4,112.21V98.11h1.77v2.14a5.9,5.9,0,0,1,1.24-2,1.93,1.93,0,0,1,1.27-.49,3.36,3.36,0,0,1,2,.77l-.66,2.22a2.51,2.51,0,0,0-1.42-.52,1.72,1.72,0,0,0-1.14.44,2.31,2.31,0,0,0-.73,1.22,10.94,10.94,0,0,0-.37,2.91v7.38Z"/><path class="cls-4" d="M187.35,110.47a7.26,7.26,0,0,1-2,1.54,4.94,4.94,0,0,1-2.21.52,3.86,3.86,0,0,1-2.88-1.09,4,4,0,0,1-1.07-2.93,4.6,4.6,0,0,1,.5-2.17,3.83,3.83,0,0,1,1.38-1.47,7.41,7.41,0,0,1,2.66-.78,15.25,15.25,0,0,0,3.5-.84l0-.61a3.12,3.12,0,0,0-.52-2,2.8,2.8,0,0,0-2.25-.85,3.1,3.1,0,0,0-2,.57,3.71,3.71,0,0,0-1,2.12l-1.92-.31a5.31,5.31,0,0,1,1.67-3.31,5.49,5.49,0,0,1,3.59-1,5.09,5.09,0,0,1,2.85.69,2.93,2.93,0,0,1,1.31,1.69,12.17,12.17,0,0,1,.27,3v3.18a38.63,38.63,0,0,0,.13,4.22,6.4,6.4,0,0,0,.49,1.69h-2A6,6,0,0,1,187.35,110.47Zm-.16-5.33a12.54,12.54,0,0,1-3.2.9,5.94,5.94,0,0,0-1.72.48,1.9,1.9,0,0,0-.77.77,2.41,2.41,0,0,0-.27,1.15,2.12,2.12,0,0,0,.63,1.61,2.33,2.33,0,0,0,1.72.61,3.44,3.44,0,0,0,1.91-.55,3.39,3.39,0,0,0,1.28-1.45,6.56,6.56,0,0,0,.42-2.65Z"/><path class="cls-4" d="M192.24,112.21V98.11H194v2a4.43,4.43,0,0,1,1.5-1.69,3.56,3.56,0,0,1,2-.6,3.34,3.34,0,0,1,2.06.63,3.44,3.44,0,0,1,1.2,1.83,5.32,5.32,0,0,1,1.59-1.84,3.45,3.45,0,0,1,2-.62A3.28,3.28,0,0,1,207,98.92a5.61,5.61,0,0,1,.95,3.61v9.68H206v-8.89a7.23,7.23,0,0,0-.22-2.15,1.86,1.86,0,0,0-.71-1,1.9,1.9,0,0,0-1.11-.35,2.55,2.55,0,0,0-2.07,1,5,5,0,0,0-.8,3.15v8.2h-2V103a4.24,4.24,0,0,0-.54-2.47,1.75,1.75,0,0,0-1.48-.72,2.47,2.47,0,0,0-2.12,1.09,7.27,7.27,0,0,0-.77,4v7.32Z"/><path class="cls-4" d="M218.69,107.67l2,.31a6.07,6.07,0,0,1-1.82,3.4,4.81,4.81,0,0,1-3.28,1.15,4.88,4.88,0,0,1-4-1.86,8.32,8.32,0,0,1-1.52-5.39,8.78,8.78,0,0,1,1.53-5.57,4.76,4.76,0,0,1,3.88-1.92,4.6,4.6,0,0,1,3.75,1.89,8.62,8.62,0,0,1,1.5,5.46l0,.63h-8.62a6.07,6.07,0,0,0,1.1,3.59,3,3,0,0,0,2.39,1.21C217.1,110.57,218.12,109.6,218.69,107.67Zm-6.43-3.86h6.45a5.37,5.37,0,0,0-.79-2.74,2.85,2.85,0,0,0-4.64-.22A4.8,4.8,0,0,0,212.26,103.81Z"/><path class="cls-4" d="M225.33,112.21l-3.56-14.1h2l1.84,8.14.68,3,.61-2.91,1.84-8.26h2l1.72,8.18.58,2.7.66-2.73,2-8.15h1.91L234,112.21h-2l-1.85-8.44-.43-2.4-2.34,10.84Z"/><path class="cls-4" d="M238.54,105.16a8.52,8.52,0,0,1,1.53-5.51,5,5,0,0,1,7.75,0,8.2,8.2,0,0,1,1.55,5.37q0,3.8-1.52,5.65a5,5,0,0,1-7.76,0A8.48,8.48,0,0,1,238.54,105.16Zm2,0a6.83,6.83,0,0,0,1,4.07,3,3,0,0,0,2.47,1.34,2.88,2.88,0,0,0,2.37-1.35,6.87,6.87,0,0,0,1-4.06,6.73,6.73,0,0,0-1-4.06,3,3,0,0,0-2.47-1.34,2.87,2.87,0,0,0-2.37,1.34A6.84,6.84,0,0,0,240.54,105.16Z"/><path class="cls-4" d="M251.68,112.21V98.11h1.77v2.14a5.9,5.9,0,0,1,1.24-2,1.93,1.93,0,0,1,1.27-.49,3.36,3.36,0,0,1,2,.77l-.66,2.22a2.51,2.51,0,0,0-1.42-.52,1.72,1.72,0,0,0-1.14.44,2.31,2.31,0,0,0-.73,1.22,10.94,10.94,0,0,0-.38,2.91v7.38Z"/><path class="cls-4" d="M259.14,112.21V92.75h1.95v11.12l4.66-5.76h2.53l-4.42,5.24,4.86,8.86h-2.4L262.48,105l-1.39,1.63v5.59Z"/><path class="cls-4" d="M308.77,9.44V123.12h-295V9.44h295m2-2h-299V125.12h299V7.44Z"/></svg>