<?xml version="1.0" encoding="utf-8"?>
<!-- Generator: Adobe Illustrator 23.0.5, SVG Export Plug-In . SVG Version: 6.00 Build 0)  -->
<svg version="1.1" id="Layer_1" xmlns="http://www.w3.org/2000/svg" xmlns:xlink="http://www.w3.org/1999/xlink" x="0px" y="0px"
	 viewBox="0 0 308 126" style="enable-background:new 0 0 308 126;" xml:space="preserve">
<style type="text/css">
	.st0{fill:#07407D;}
	.st1{fill:#A50949;}
	.st2{fill:#A6094A;}
	.st3{fill:#1BA6E3;}
	.st4{fill:#1BA5DF;}
	.st5{fill:#1BA5E2;}
	.st6{fill:#166BA1;}
	.st7{fill:#3BAC93;}
	.st8{fill:#1E2E5C;}
	.st9{fill:#6DB246;}
	.st10{fill:#186B9E;}
	.st11{fill:#3AAB90;}
	.st12{fill:#07407C;}
	.st13{fill:none;stroke:#07407C;stroke-miterlimit:10;}
	.st14{fill:#4C262D;}
	.st15{fill:#66215B;}
	.st16{fill:#997097;}
	.st17{fill:#E73C1E;}
	.st18{fill:#73243B;}
	.st19{fill:#4D3D7E;}
	.st20{fill:#5D5E5F;}
	.st21{fill:#4674C1;}
	.st22{fill:none;stroke:#07407D;stroke-width:2;stroke-miterlimit:10;}
	.st23{fill:none;stroke:#66215B;stroke-width:2;stroke-miterlimit:10;}
	.st24{fill:#4D2432;}
	.st25{fill:#5F2361;}
	.st26{fill:#9D74A0;}
	.st27{fill:#5E2260;}
	.st28{fill:#C51315;}
	.st29{fill:#975B67;}
	.st30{fill:#1E193D;}
	.st31{fill:#AA9EC2;}
	.st32{fill:#4D3D7E;stroke:#134274;stroke-miterlimit:10;}
	.st33{stroke:#000000;stroke-miterlimit:10;}
	.st34{fill:#606060;}
	.st35{fill:none;stroke:#676565;stroke-width:0.5;stroke-miterlimit:10;}
	.st36{fill:none;stroke:#1E1E1D;stroke-width:0.25;stroke-miterlimit:10;}
	.st37{fill:#F58020;}
	.st38{fill:#EF402A;}
</style>
<g>
	<path class="st19" d="M301.52,6.16v113.68H6.48V6.16H301.52 M303.52,4.16H4.48v117.68h299.04V4.16L303.52,4.16z"/>
</g>
<g>
	<g>
		<path class="st19" d="M91.26,44.3V18.06h14.22c3.09,0,5.57,0.74,7.43,2.22c1.86,1.48,2.8,3.46,2.8,5.92
			c0,1.36-0.32,2.63-0.96,3.81c-0.64,1.18-1.52,2.13-2.65,2.86c-0.78,0.49-1.59,0.83-2.42,1.02c-0.84,0.19-1.96,0.28-3.38,0.28
			H96.07h-0.78V44.3H91.26z M106.3,21.69H96.07h-0.78v8.92h0.78h9.62c4.11,0,6.16-1.5,6.16-4.51c0-1.34-0.51-2.41-1.52-3.21
			C109.32,22.09,107.97,21.69,106.3,21.69z"/>
		<path class="st19" d="M119.07,44.3V18.06h16.56c2.74,0,4.9,0.61,6.49,1.82c1.59,1.21,2.39,2.85,2.39,4.92
			c0,1.81-0.65,3.24-1.95,4.3c-1.3,1.06-3.19,1.7-5.66,1.94c0.71,0.94,1.28,1.76,1.7,2.47l6.93,10.79h-4.99l-7.96-12.94h-8.71
			l-0.78,0V44.3H119.07z M135.81,21.45h-11.93h-0.78v6.35h0.78h12.17c1.44,0,2.57-0.28,3.38-0.85c0.81-0.56,1.22-1.36,1.22-2.4
			C140.66,22.48,139.04,21.45,135.81,21.45z"/>
		<path class="st19" d="M148.34,44.3V18.06h4.03V44.3H148.34z"/>
		<path class="st19" d="M157.15,44.3V18.06h5.5L176.43,35c1.24,1.54,2.26,2.91,3.08,4.12l0.14-0.07c-0.12-1.79-0.18-3.49-0.18-5.11
			V18.06h3.86V44.3h-4.49l-14.76-18.02c-1.11-1.36-2.15-2.73-3.11-4.09l-0.14,0.07c0.12,1.43,0.18,3.13,0.18,5.08V44.3H157.15z"/>
		<path class="st19" d="M213.97,24.3l-3.89,1.76c-1.56-3.41-4.45-5.11-8.67-5.11c-2.97,0-5.46,0.96-7.47,2.89
			c-2.08,2-3.11,4.47-3.11,7.41c0,2.99,0.97,5.43,2.92,7.32c1.95,1.89,4.45,2.84,7.52,2.84c2.6,0,4.85-0.72,6.76-2.15
			c0.87-0.68,1.83-1.74,2.87-3.17l3.18,2.08c-1.39,1.86-2.8,3.26-4.21,4.2c-2.45,1.6-5.3,2.4-8.53,2.4c-2.26,0-4.18-0.25-5.73-0.76
			c-1.56-0.51-3-1.33-4.32-2.49c-1.37-1.22-2.43-2.72-3.18-4.48c-0.76-1.76-1.13-3.62-1.13-5.57c0-4.11,1.3-7.45,3.89-10.01
			c2.6-2.56,5.98-3.84,10.16-3.84c3.18,0,6.09,0.75,8.7,2.26C211.52,20.89,212.94,22.37,213.97,24.3z"/>
		<path class="st19" d="M217.09,44.3V18.06h22.22v3.63H221.9l-0.78,0v5.93l0.78,0h14.47v3.63H221.9l-0.78,0v9.48l0.78,0.01h18.33
			v3.56H217.09z"/>
	</g>
	<path class="st19" d="M242.68,25.71l3.43,1.56c0,0,1.63-4.63,6.65-5.14c2.11-0.21,6.92-0.26,7.76,3.43c0.5,2.22-0.62,4.59-6.65,6.7
		c-3.35,1.18-9.27,5.19-11.18,8.77v3.27h21.71v-3.43l-16.93-0.15c0,0,1.06-2.7,7.86-5.24c3.14-1.17,9.42-3.17,9.07-9.87
		c-0.18-3.39-2.72-7.46-11.59-7.1C249.7,18.63,244.44,20.22,242.68,25.71z"/>
	<g>
		<path class="st30" d="M61.21,45.01c0,0-3.28-1.5-5.64-3.81c-1.85-1.8-3.44-4.86-2.46-10.02c0.79-4.14,4.74-10.72,13.71-9.78
			l-3.43-3.01l-6.63-0.24l-4.8,2.03c0,0-4.5,4.03-5.55,8.25c-0.72,2.9-0.87,7.16,2.44,11.69c3.99,5.47,8.7,5.15,8.7,5.15
			L61.21,45.01z"/>
		<path class="st19" d="M61.12,47.28c0,0-4.01-0.23-7.48-2.46c-3.44-2.21-4.94-4.23-5.91-6.45c0,0,3.27,4.35,6.65,5.48
			c2.6,0.87,7.42,1.62,10.91-1.01l2.53,0.92l-5.98,3.81L61.12,47.28z"/>
		<path class="st30" d="M59.04,48c0,0-3.15,1.88-10.13-3.38c-2.82-2.13-6.2-6.67-6.27-12.93c-0.06-5.97,4.01-15.67,15.59-17.31
			l-2.57-2.13h-8.2l-3.14,2.65l-5.16,4.39l-1.88,2.8c0,0-2.99,3.62-2.65,10.08c0,0-0.19,6.95,3.57,10.81s6.71,5.79,6.71,5.79
			l12.11,2.03l3.47-0.39L59.04,48z"/>
		<path class="st31" d="M74,45.06c0,0-3.52,4.59-9.6,6.75c-3.17,1.13-8.35,2.52-15.34,0c-8.97-3.23-12.51-11.08-12.67-11.4
			c-0.2-0.39-0.31-0.72-0.5-1.14c0,0,3.52,7.53,12.88,9.55c3.53,0.76,9.91,0.08,14.04-3.57c2.66-2.35,6.66-5.95,7.57-13.17
			c0.5-3.93,0.11-11.21-9.12-12.98c-3.85-0.74-10.05-0.37-14.01,7.08c0,0,2.23-9.02,14.1-10.58l9.79,1.67l6.46,15.29v9.41L74,45.06z
			"/>
		<path class="st19" d="M86.3,52.29c0,0-9.21,1.81-12.73-7.14c-1.03-2.62-1.47-4.88-1.4-11.19c0.03-2.79-1.19-10.77-7.91-16.26
			c-2.58-2.1-6.21-4.36-12.69-4.05c-5.21,0.25-12.14,3.45-16.38,13c0,0,2.26-12.27,16.21-16.45c6.08-1.83,16.09-1.62,24.18,7.72
			c3.06,3.53,6.14,10.13,4.82,18.07C79.69,40.26,78.08,51.62,86.3,52.29z"/>
	</g>
	<g>
		<g>
			<g>
				<path class="st19" d="M270.2,24.21c-1.51,0-2.74-1.23-2.74-2.74s1.23-2.74,2.74-2.74c1.51,0,2.74,1.23,2.74,2.74
					S271.71,24.21,270.2,24.21z M270.2,19.14c-1.28,0-2.33,1.05-2.33,2.33s1.05,2.33,2.33,2.33c1.28,0,2.33-1.05,2.33-2.33
					S271.49,19.14,270.2,19.14z"/>
			</g>
		</g>
		<g>
			<path class="st19" d="M269.36,19.95c0.19-0.04,0.47-0.06,0.73-0.06c0.41,0,0.67,0.07,0.85,0.23c0.15,0.12,0.23,0.31,0.23,0.52
				c0,0.36-0.24,0.61-0.56,0.7v0.01c0.23,0.07,0.36,0.27,0.43,0.56c0.1,0.38,0.17,0.65,0.23,0.76h-0.39
				c-0.05-0.08-0.11-0.32-0.2-0.66c-0.09-0.38-0.25-0.52-0.59-0.54h-0.36v1.2h-0.38V19.95z M269.74,21.2h0.39
				c0.41,0,0.67-0.21,0.67-0.52c0-0.36-0.28-0.51-0.68-0.52c-0.18,0-0.32,0.02-0.38,0.03V21.2z"/>
		</g>
	</g>
	<g>
		<path class="st19" d="M54.05,71.22h-1.72l-0.69-1.78H48.5l-0.65,1.78h-1.68l3.06-7.85h1.68L54.05,71.22z M51.13,68.11l-1.08-2.91
			l-1.06,2.91H51.13z"/>
		<path class="st19" d="M59.91,68.33l1.54,0.49c-0.24,0.86-0.63,1.49-1.17,1.91c-0.55,0.42-1.24,0.62-2.09,0.62
			c-1.04,0-1.9-0.36-2.57-1.07c-0.67-0.71-1.01-1.68-1.01-2.92c0-1.31,0.34-2.32,1.01-3.04c0.67-0.72,1.56-1.08,2.66-1.08
			c0.96,0,1.74,0.28,2.34,0.85c0.36,0.33,0.62,0.82,0.8,1.44l-1.57,0.37c-0.09-0.41-0.29-0.73-0.58-0.96s-0.65-0.35-1.07-0.35
			c-0.58,0-1.05,0.21-1.42,0.63c-0.36,0.42-0.54,1.09-0.54,2.03c0,0.99,0.18,1.7,0.54,2.12C57.14,69.79,57.6,70,58.17,70
			c0.42,0,0.78-0.13,1.09-0.4C59.56,69.33,59.78,68.91,59.91,68.33z"/>
		<path class="st19" d="M67.83,68.33l1.54,0.49c-0.24,0.86-0.63,1.49-1.17,1.91c-0.55,0.42-1.24,0.62-2.09,0.62
			c-1.04,0-1.9-0.36-2.57-1.07c-0.67-0.71-1.01-1.68-1.01-2.92c0-1.31,0.34-2.32,1.01-3.04c0.67-0.72,1.56-1.08,2.66-1.08
			c0.96,0,1.74,0.28,2.34,0.85c0.36,0.33,0.62,0.82,0.8,1.44l-1.57,0.37c-0.09-0.41-0.29-0.73-0.58-0.96
			c-0.29-0.24-0.65-0.35-1.07-0.35c-0.58,0-1.05,0.21-1.42,0.63c-0.36,0.42-0.54,1.09-0.54,2.03c0,0.99,0.18,1.7,0.54,2.12
			c0.36,0.42,0.82,0.63,1.39,0.63c0.42,0,0.78-0.13,1.09-0.4C67.48,69.33,67.7,68.91,67.83,68.33z"/>
		<path class="st19" d="M70.73,71.22v-7.85h3.34c0.84,0,1.45,0.07,1.83,0.21c0.38,0.14,0.68,0.39,0.91,0.75
			c0.23,0.36,0.34,0.77,0.34,1.24c0,0.59-0.17,1.08-0.52,1.46c-0.35,0.38-0.86,0.63-1.55,0.73c0.34,0.2,0.63,0.42,0.85,0.66
			c0.22,0.24,0.52,0.66,0.9,1.27l0.96,1.53h-1.9l-1.15-1.71c-0.41-0.61-0.69-0.99-0.84-1.15c-0.15-0.16-0.31-0.27-0.48-0.33
			c-0.17-0.06-0.43-0.09-0.8-0.09h-0.32v3.28H70.73z M72.31,66.69h1.17c0.76,0,1.23-0.03,1.42-0.1c0.19-0.06,0.34-0.18,0.44-0.33
			c0.11-0.16,0.16-0.35,0.16-0.59c0-0.26-0.07-0.48-0.21-0.64c-0.14-0.16-0.34-0.27-0.6-0.31c-0.13-0.02-0.51-0.03-1.16-0.03h-1.24
			V66.69z"/>
		<path class="st19" d="M78.64,71.22v-7.85h5.82v1.33h-4.23v1.74h3.94v1.32h-3.94v2.14h4.38v1.32H78.64z"/>
		<path class="st19" d="M85.95,63.37h2.9c0.65,0,1.15,0.05,1.49,0.15c0.46,0.14,0.85,0.38,1.18,0.72c0.33,0.35,0.58,0.77,0.75,1.27
			c0.17,0.5,0.26,1.12,0.26,1.85c0,0.65-0.08,1.2-0.24,1.67c-0.2,0.57-0.48,1.03-0.84,1.39c-0.27,0.27-0.65,0.48-1.11,0.63
			c-0.35,0.11-0.82,0.17-1.4,0.17h-2.98V63.37z M87.53,64.7v5.2h1.18c0.44,0,0.76-0.03,0.96-0.08c0.26-0.06,0.47-0.17,0.64-0.33
			c0.17-0.15,0.31-0.41,0.42-0.76s0.16-0.83,0.16-1.44c0-0.61-0.05-1.07-0.16-1.4s-0.26-0.58-0.45-0.76
			c-0.19-0.18-0.44-0.31-0.73-0.37c-0.22-0.05-0.66-0.08-1.3-0.08H87.53z"/>
		<path class="st19" d="M93.82,71.22v-7.85h1.58v7.85H93.82z"/>
		<path class="st19" d="M98.69,71.22V64.7h-2.33v-1.33h6.24v1.33h-2.32v6.52H98.69z"/>
		<path class="st19" d="M103.62,71.22v-7.85h5.82v1.33h-4.23v1.74h3.94v1.32h-3.94v2.14h4.38v1.32H103.62z"/>
		<path class="st19" d="M110.92,63.37h2.9c0.65,0,1.15,0.05,1.49,0.15c0.46,0.14,0.85,0.38,1.18,0.72c0.33,0.35,0.58,0.77,0.75,1.27
			c0.17,0.5,0.26,1.12,0.26,1.85c0,0.65-0.08,1.2-0.24,1.67c-0.2,0.57-0.48,1.03-0.84,1.39c-0.27,0.27-0.65,0.48-1.11,0.63
			c-0.35,0.11-0.82,0.17-1.4,0.17h-2.98V63.37z M112.51,64.7v5.2h1.18c0.44,0,0.76-0.03,0.96-0.08c0.26-0.06,0.47-0.17,0.64-0.33
			c0.17-0.15,0.31-0.41,0.42-0.76s0.16-0.83,0.16-1.44c0-0.61-0.05-1.07-0.16-1.4s-0.26-0.58-0.45-0.76
			c-0.19-0.18-0.44-0.31-0.73-0.37c-0.22-0.05-0.66-0.08-1.3-0.08H112.51z"/>
		<path class="st19" d="M123.66,71.22V64.7h-2.33v-1.33h6.24v1.33h-2.32v6.52H123.66z"/>
		<path class="st19" d="M128.59,71.22v-7.85h3.34c0.84,0,1.45,0.07,1.83,0.21c0.38,0.14,0.68,0.39,0.91,0.75
			c0.23,0.36,0.34,0.77,0.34,1.24c0,0.59-0.17,1.08-0.52,1.46c-0.35,0.38-0.86,0.63-1.55,0.73c0.34,0.2,0.63,0.42,0.85,0.66
			c0.22,0.24,0.52,0.66,0.9,1.27l0.96,1.53h-1.9l-1.15-1.71c-0.41-0.61-0.69-0.99-0.84-1.15c-0.15-0.16-0.31-0.27-0.48-0.33
			c-0.17-0.06-0.43-0.09-0.8-0.09h-0.32v3.28H128.59z M130.18,66.69h1.17c0.76,0,1.23-0.03,1.42-0.1c0.19-0.06,0.34-0.18,0.44-0.33
			c0.11-0.16,0.16-0.35,0.16-0.59c0-0.26-0.07-0.48-0.21-0.64c-0.14-0.16-0.34-0.27-0.6-0.31c-0.13-0.02-0.51-0.03-1.16-0.03h-1.24
			V66.69z"/>
		<path class="st19" d="M143.58,71.22h-1.72l-0.69-1.78h-3.14l-0.65,1.78h-1.68l3.06-7.85h1.68L143.58,71.22z M140.67,68.11
			l-1.08-2.91l-1.06,2.91H140.67z"/>
		<path class="st19" d="M144.38,71.22v-7.85h1.58v7.85H144.38z"/>
		<path class="st19" d="M147.49,71.22v-7.85h1.54l3.21,5.24v-5.24h1.47v7.85h-1.59l-3.16-5.12v5.12H147.49z"/>
		<path class="st19" d="M155.34,71.22v-7.85h1.58v7.85H155.34z"/>
		<path class="st19" d="M158.45,71.22v-7.85h1.54l3.21,5.24v-5.24h1.47v7.85h-1.59l-3.16-5.12v5.12H158.45z"/>
		<path class="st19" d="M170,68.33v-1.32h3.42v3.13c-0.33,0.32-0.81,0.6-1.44,0.85s-1.27,0.37-1.91,0.37
			c-0.82,0-1.54-0.17-2.15-0.52c-0.61-0.34-1.07-0.84-1.38-1.48c-0.31-0.64-0.46-1.34-0.46-2.09c0-0.82,0.17-1.54,0.51-2.18
			c0.34-0.64,0.84-1.12,1.5-1.46c0.5-0.26,1.13-0.39,1.88-0.39c0.97,0,1.74,0.2,2.28,0.61c0.55,0.41,0.9,0.97,1.06,1.69l-1.57,0.29
			c-0.11-0.39-0.32-0.69-0.62-0.91c-0.3-0.22-0.69-0.33-1.14-0.33c-0.69,0-1.24,0.22-1.65,0.66s-0.61,1.09-0.61,1.95
			c0,0.93,0.21,1.63,0.62,2.1c0.41,0.46,0.96,0.7,1.63,0.7c0.33,0,0.66-0.06,1-0.19c0.33-0.13,0.62-0.29,0.86-0.47v-1H170z"/>
		<path class="st19" d="M177.6,67.34c0-0.8,0.12-1.47,0.36-2.01c0.18-0.4,0.42-0.76,0.73-1.08c0.31-0.32,0.65-0.55,1.01-0.71
			c0.49-0.21,1.05-0.31,1.69-0.31c1.16,0,2.08,0.36,2.78,1.08c0.69,0.72,1.04,1.71,1.04,2.99c0,1.27-0.34,2.26-1.03,2.97
			c-0.69,0.72-1.61,1.07-2.76,1.07c-1.17,0-2.1-0.36-2.78-1.07C177.95,69.57,177.6,68.59,177.6,67.34z M179.24,67.29
			c0,0.89,0.21,1.56,0.62,2.02c0.41,0.46,0.93,0.69,1.56,0.69c0.63,0,1.15-0.23,1.56-0.68c0.4-0.46,0.61-1.14,0.61-2.05
			c0-0.9-0.2-1.57-0.59-2.01c-0.39-0.44-0.92-0.66-1.57-0.66s-1.18,0.22-1.58,0.67S179.24,66.39,179.24,67.29z"/>
		<path class="st19" d="M186.46,71.22v-7.85h3.34c0.84,0,1.45,0.07,1.83,0.21c0.38,0.14,0.68,0.39,0.91,0.75
			c0.23,0.36,0.34,0.77,0.34,1.24c0,0.59-0.17,1.08-0.52,1.46c-0.35,0.38-0.86,0.63-1.55,0.73c0.34,0.2,0.63,0.42,0.85,0.66
			c0.22,0.24,0.52,0.66,0.9,1.27l0.96,1.53h-1.9l-1.15-1.71c-0.41-0.61-0.69-0.99-0.84-1.15c-0.15-0.16-0.31-0.27-0.48-0.33
			c-0.17-0.06-0.43-0.09-0.8-0.09h-0.32v3.28H186.46z M188.04,66.69h1.17c0.76,0,1.23-0.03,1.42-0.1c0.19-0.06,0.34-0.18,0.44-0.33
			c0.11-0.16,0.16-0.35,0.16-0.59c0-0.26-0.07-0.48-0.21-0.64c-0.14-0.16-0.34-0.27-0.6-0.31c-0.13-0.02-0.51-0.03-1.16-0.03h-1.24
			V66.69z"/>
		<path class="st19" d="M198.02,68.33v-1.32h3.42v3.13c-0.33,0.32-0.81,0.6-1.44,0.85s-1.27,0.37-1.91,0.37
			c-0.82,0-1.54-0.17-2.15-0.52c-0.61-0.34-1.07-0.84-1.38-1.48c-0.31-0.64-0.46-1.34-0.46-2.09c0-0.82,0.17-1.54,0.51-2.18
			c0.34-0.64,0.84-1.12,1.5-1.46c0.5-0.26,1.13-0.39,1.88-0.39c0.97,0,1.74,0.2,2.28,0.61c0.55,0.41,0.9,0.97,1.06,1.69l-1.57,0.29
			c-0.11-0.39-0.32-0.69-0.62-0.91c-0.3-0.22-0.69-0.33-1.14-0.33c-0.69,0-1.24,0.22-1.65,0.66s-0.61,1.09-0.61,1.95
			c0,0.93,0.21,1.63,0.62,2.1c0.41,0.46,0.96,0.7,1.63,0.7c0.33,0,0.66-0.06,1-0.19c0.33-0.13,0.62-0.29,0.86-0.47v-1H198.02z"/>
		<path class="st19" d="M209.98,71.22h-1.72l-0.69-1.78h-3.14l-0.65,1.78h-1.68l3.06-7.85h1.68L209.98,71.22z M207.06,68.11
			l-1.08-2.91l-1.06,2.91H207.06z"/>
		<path class="st19" d="M210.83,71.22v-7.85h1.54l3.21,5.24v-5.24h1.47v7.85h-1.59l-3.16-5.12v5.12H210.83z"/>
		<path class="st19" d="M218.69,71.22v-7.85h1.58v7.85H218.69z"/>
		<path class="st19" d="M221.1,71.22v-1.43l4.12-5.09h-3.66v-1.33h5.74v1.23l-4.3,5.3h4.46v1.32H221.1z"/>
		<path class="st19" d="M235.55,71.22h-1.72l-0.69-1.78h-3.14l-0.65,1.78h-1.68l3.06-7.85h1.68L235.55,71.22z M232.64,68.11
			l-1.08-2.91l-1.06,2.91H232.64z"/>
		<path class="st19" d="M237.35,71.22V64.7h-2.33v-1.33h6.24v1.33h-2.32v6.52H237.35z"/>
		<path class="st19" d="M242.23,71.22v-7.85h1.58v7.85H242.23z"/>
		<path class="st19" d="M245,67.34c0-0.8,0.12-1.47,0.36-2.01c0.18-0.4,0.42-0.76,0.73-1.08c0.31-0.32,0.65-0.55,1.01-0.71
			c0.49-0.21,1.05-0.31,1.69-0.31c1.16,0,2.08,0.36,2.78,1.08c0.69,0.72,1.04,1.71,1.04,2.99c0,1.27-0.34,2.26-1.03,2.97
			c-0.69,0.72-1.61,1.07-2.76,1.07c-1.17,0-2.1-0.36-2.78-1.07C245.35,69.57,245,68.59,245,67.34z M246.64,67.29
			c0,0.89,0.21,1.56,0.62,2.02c0.41,0.46,0.93,0.69,1.56,0.69c0.63,0,1.15-0.23,1.56-0.68c0.4-0.46,0.61-1.14,0.61-2.05
			c0-0.9-0.2-1.57-0.59-2.01c-0.39-0.44-0.92-0.66-1.57-0.66s-1.18,0.22-1.58,0.67S246.64,66.39,246.64,67.29z"/>
		<path class="st19" d="M253.87,71.22v-7.85h1.54l3.21,5.24v-5.24h1.47v7.85h-1.59l-3.16-5.12v5.12H253.87z"/>
	</g>
	<g>
		<path class="st19" d="M111.24,100.07c0-0.76,0.11-1.39,0.34-1.9c0.17-0.38,0.4-0.72,0.69-1.02c0.29-0.3,0.61-0.52,0.96-0.67
			c0.46-0.2,1-0.29,1.6-0.29c1.09,0,1.97,0.34,2.62,1.02c0.66,0.68,0.98,1.62,0.98,2.83c0,1.2-0.33,2.13-0.98,2.81
			c-0.65,0.68-1.52,1.01-2.61,1.01c-1.1,0-1.98-0.34-2.63-1.01C111.57,102.17,111.24,101.25,111.24,100.07z M112.79,100.02
			c0,0.84,0.19,1.48,0.58,1.91c0.39,0.43,0.88,0.65,1.48,0.65s1.09-0.22,1.47-0.65c0.38-0.43,0.57-1.08,0.57-1.94
			c0-0.85-0.19-1.48-0.56-1.9c-0.37-0.42-0.87-0.63-1.49-0.63c-0.62,0-1.12,0.21-1.49,0.64C112.97,98.52,112.79,99.16,112.79,100.02
			z"/>
		<path class="st19" d="M119.62,103.73v-7.42h1.46l3.04,4.95v-4.95h1.39v7.42h-1.5l-2.99-4.84v4.84H119.62z"/>
		<path class="st19" d="M129.98,96.31h2.97c0.59,0,1.02,0.02,1.31,0.07c0.29,0.05,0.55,0.15,0.77,0.31
			c0.23,0.15,0.42,0.36,0.57,0.62c0.15,0.26,0.23,0.55,0.23,0.87c0,0.35-0.09,0.67-0.28,0.96c-0.19,0.29-0.44,0.51-0.76,0.65
			c0.45,0.13,0.8,0.36,1.04,0.67c0.24,0.32,0.36,0.69,0.36,1.12c0,0.34-0.08,0.67-0.24,0.98c-0.16,0.32-0.37,0.57-0.64,0.76
			c-0.27,0.19-0.61,0.31-1,0.35c-0.25,0.03-0.85,0.04-1.81,0.05h-2.53V96.31z M131.48,97.55v1.72h0.98c0.58,0,0.95-0.01,1.09-0.02
			c0.26-0.03,0.46-0.12,0.6-0.27c0.15-0.15,0.22-0.34,0.22-0.58c0-0.23-0.06-0.42-0.19-0.56c-0.13-0.14-0.31-0.23-0.56-0.26
			c-0.15-0.02-0.58-0.02-1.28-0.02H131.48z M131.48,100.5v1.98h1.39c0.54,0,0.88-0.01,1.03-0.04c0.22-0.04,0.4-0.14,0.54-0.3
			c0.14-0.16,0.21-0.37,0.21-0.63c0-0.22-0.05-0.41-0.16-0.57c-0.11-0.15-0.26-0.27-0.47-0.34c-0.2-0.07-0.65-0.11-1.33-0.11H131.48
			z"/>
		<path class="st19" d="M137.46,103.73v-7.42h5.5v1.26h-4v1.64h3.73v1.25h-3.73v2.02h4.15v1.25H137.46z"/>
		<path class="st19" d="M144.38,103.73v-7.42h1.5v2.92h2.94v-2.92h1.5v7.42h-1.5v-3.24h-2.94v3.24H144.38z"/>
		<path class="st19" d="M158.55,103.73h-1.63l-0.65-1.69h-2.97l-0.61,1.69h-1.59l2.89-7.42h1.58L158.55,103.73z M155.79,100.8
			l-1.02-2.75l-1,2.75H155.79z"/>
		<path class="st19" d="M159.38,103.73v-7.36h1.5v6.11h3.72v1.25H159.38z"/>
		<path class="st19" d="M165.68,103.73v-7.42h5.09v1.26h-3.59v1.76h3.1v1.26h-3.1v3.15H165.68z"/>
		<path class="st19" d="M174.58,100.07c0-0.76,0.11-1.39,0.34-1.9c0.17-0.38,0.4-0.72,0.69-1.02c0.29-0.3,0.61-0.52,0.96-0.67
			c0.46-0.2,1-0.29,1.6-0.29c1.09,0,1.97,0.34,2.62,1.02c0.66,0.68,0.98,1.62,0.98,2.83c0,1.2-0.33,2.13-0.98,2.81
			c-0.65,0.68-1.52,1.01-2.61,1.01c-1.1,0-1.98-0.34-2.63-1.01C174.91,102.17,174.58,101.25,174.58,100.07z M176.12,100.02
			c0,0.84,0.19,1.48,0.58,1.91c0.39,0.43,0.88,0.65,1.48,0.65c0.6,0,1.09-0.22,1.47-0.65c0.38-0.43,0.57-1.08,0.57-1.94
			c0-0.85-0.19-1.48-0.56-1.9c-0.37-0.42-0.87-0.63-1.49-0.63c-0.62,0-1.12,0.21-1.49,0.64C176.31,98.52,176.12,99.16,176.12,100.02
			z"/>
		<path class="st19" d="M182.96,103.73v-7.42h5.09v1.26h-3.59v1.76h3.1v1.26h-3.1v3.15H182.96z"/>
	</g>
	<g>
		<path d="M29.37,95.84c0,0.51-0.08,1.01-0.24,1.49c-0.16,0.48-0.41,0.9-0.74,1.27c-0.34,0.37-0.78,0.66-1.32,0.88
			c-0.55,0.22-1.21,0.34-1.98,0.34h-2.56v5.37h-1.79V91.83H25c1.39,0,2.47,0.33,3.23,0.99C28.99,93.48,29.37,94.49,29.37,95.84z
			 M27.56,95.82c0-0.77-0.2-1.37-0.6-1.82s-1.07-0.67-2-0.67h-2.43v4.99h2.46c0.5,0,0.92-0.07,1.25-0.21
			c0.33-0.14,0.6-0.33,0.8-0.56c0.2-0.23,0.34-0.49,0.42-0.8C27.52,96.45,27.56,96.14,27.56,95.82z"/>
		<path d="M37.12,103.47c-0.29,0.56-0.71,1.01-1.28,1.33c-0.57,0.33-1.21,0.49-1.93,0.49c-0.72,0-1.33-0.09-1.83-0.27
			c-0.5-0.18-0.92-0.46-1.24-0.85c-0.32-0.39-0.56-0.89-0.71-1.51c-0.15-0.61-0.23-1.35-0.23-2.22c0-0.6,0.05-1.19,0.16-1.77
			c0.11-0.58,0.3-1.1,0.58-1.56c0.28-0.46,0.67-0.83,1.16-1.11s1.12-0.42,1.88-0.42c1.21,0,2.13,0.34,2.78,1.03
			c0.64,0.68,0.96,1.63,0.96,2.83v1.48h-5.77c0,0.42,0.03,0.81,0.09,1.18c0.06,0.36,0.16,0.68,0.32,0.95
			c0.16,0.27,0.38,0.48,0.67,0.63c0.29,0.15,0.66,0.23,1.12,0.23c0.39,0,0.74-0.11,1.07-0.33c0.32-0.22,0.59-0.47,0.79-0.77
			L37.12,103.47z M35.68,99.66c0-0.88-0.17-1.54-0.51-1.98c-0.34-0.44-0.83-0.67-1.48-0.67c-0.75,0-1.26,0.24-1.54,0.71
			c-0.28,0.48-0.43,1.12-0.46,1.93H35.68z"/>
		<path d="M43.02,95.57c0.85,0,1.51,0.15,2,0.45c0.49,0.3,0.88,0.68,1.16,1.12c0.1,0.15,0.19,0.36,0.26,0.6
			c0.07,0.25,0.13,0.53,0.17,0.82c0.04,0.3,0.08,0.61,0.1,0.94c0.02,0.33,0.03,0.64,0.03,0.93c0,0.18-0.01,0.4-0.02,0.65
			c-0.01,0.26-0.04,0.52-0.08,0.8c-0.04,0.28-0.08,0.55-0.12,0.81c-0.04,0.26-0.09,0.46-0.15,0.61c-0.13,0.37-0.32,0.68-0.57,0.94
			c-0.25,0.26-0.54,0.46-0.86,0.61c-0.32,0.15-0.67,0.27-1.03,0.34c-0.37,0.07-0.74,0.11-1.13,0.11c-0.82,0-1.49-0.15-2.01-0.46
			c-0.52-0.31-0.92-0.7-1.17-1.19c-0.19-0.35-0.32-0.8-0.39-1.37c-0.07-0.57-0.11-1.17-0.11-1.79c0-0.6,0.03-1.18,0.1-1.73
			c0.06-0.55,0.18-1,0.33-1.34c0.29-0.58,0.72-1.03,1.31-1.36C41.44,95.74,42.16,95.57,43.02,95.57z M42.99,96.97
			c-0.41,0-0.79,0.09-1.11,0.27c-0.33,0.18-0.57,0.45-0.73,0.8c-0.1,0.24-0.17,0.59-0.22,1.04c-0.05,0.45-0.08,0.98-0.08,1.58
			c0,0.42,0.01,0.82,0.03,1.19c0.02,0.37,0.09,0.68,0.2,0.94c0.16,0.34,0.39,0.61,0.69,0.8c0.3,0.19,0.68,0.29,1.14,0.29
			c0.44,0,0.83-0.1,1.17-0.29c0.34-0.19,0.58-0.5,0.74-0.92c0.07-0.18,0.12-0.48,0.15-0.91c0.03-0.43,0.04-0.9,0.04-1.43
			c0-0.45-0.01-0.87-0.04-1.27c-0.03-0.4-0.09-0.72-0.17-0.95c-0.16-0.38-0.39-0.67-0.71-0.86C43.77,97.07,43.41,96.97,42.99,96.97z
			"/>
		<path d="M50.41,96.59c0.31-0.36,0.67-0.62,1.07-0.78c0.4-0.16,0.85-0.24,1.35-0.24c0.7,0,1.26,0.13,1.67,0.39
			c0.41,0.26,0.74,0.61,0.97,1.06c0.23,0.44,0.38,0.96,0.45,1.54c0.07,0.59,0.11,1.2,0.11,1.84c0,0.6-0.04,1.19-0.12,1.77
			c-0.08,0.58-0.24,1.1-0.48,1.56c-0.24,0.46-0.59,0.83-1.03,1.11c-0.44,0.28-1.02,0.42-1.74,0.42c-0.89,0-1.64-0.31-2.25-0.94
			h-0.04v4.68h-1.74V95.69h1.74v0.88c0.01,0,0.02,0,0.02,0.01S50.4,96.59,50.41,96.59z M52.29,103.74c0.44,0,0.8-0.09,1.06-0.27
			s0.46-0.42,0.6-0.72c0.14-0.3,0.24-0.65,0.28-1.04c0.04-0.4,0.06-0.82,0.06-1.27c0-0.46-0.02-0.89-0.06-1.3
			c-0.04-0.41-0.13-0.77-0.27-1.07c-0.14-0.31-0.33-0.55-0.59-0.74c-0.26-0.18-0.61-0.28-1.06-0.28c-0.52,0-0.91,0.12-1.18,0.35
			c-0.27,0.24-0.47,0.53-0.58,0.89c-0.11,0.36-0.18,0.75-0.18,1.18c-0.01,0.43-0.01,0.83-0.01,1.2c0,0.35,0.02,0.7,0.05,1.05
			c0.04,0.36,0.12,0.69,0.25,0.99c0.13,0.3,0.32,0.55,0.58,0.74C51.49,103.65,51.84,103.74,52.29,103.74z"/>
		<path d="M60.96,105.24c-0.85,0-1.52-0.16-2-0.48c-0.49-0.32-0.73-0.91-0.71-1.78V91.26H60v11.47c0,0.36,0.08,0.63,0.24,0.81
			c0.16,0.18,0.44,0.27,0.84,0.27h0.37v1.44H60.96z"/>
		<path d="M69.88,103.47c-0.29,0.56-0.71,1.01-1.28,1.33c-0.57,0.33-1.21,0.49-1.93,0.49s-1.33-0.09-1.83-0.27
			c-0.5-0.18-0.92-0.46-1.24-0.85c-0.32-0.39-0.56-0.89-0.71-1.51c-0.15-0.61-0.23-1.35-0.23-2.22c0-0.6,0.05-1.19,0.16-1.77
			c0.11-0.58,0.3-1.1,0.58-1.56c0.28-0.46,0.67-0.83,1.16-1.11c0.49-0.28,1.12-0.42,1.88-0.42c1.21,0,2.13,0.34,2.78,1.03
			c0.64,0.68,0.96,1.63,0.96,2.83v1.48h-5.77c0,0.42,0.03,0.81,0.09,1.18c0.06,0.36,0.16,0.68,0.32,0.95
			c0.16,0.27,0.38,0.48,0.67,0.63c0.29,0.15,0.66,0.23,1.12,0.23c0.39,0,0.74-0.11,1.07-0.33c0.32-0.22,0.59-0.47,0.79-0.77
			L69.88,103.47z M68.44,99.66c0-0.88-0.17-1.54-0.51-1.98c-0.34-0.44-0.83-0.67-1.48-0.67c-0.75,0-1.26,0.24-1.54,0.71
			c-0.28,0.48-0.43,1.12-0.46,1.93H68.44z"/>
		<path class="st17" d="M80.61,102.71c-0.26,0.84-0.76,1.49-1.5,1.93c-0.74,0.44-1.63,0.66-2.66,0.66c-0.67,0-1.29-0.1-1.83-0.3
			c-0.55-0.2-1.01-0.47-1.38-0.82c-0.37-0.35-0.66-0.77-0.86-1.26c-0.2-0.49-0.3-1.02-0.3-1.61v-5.6c0-0.56,0.1-1.09,0.29-1.57
			c0.19-0.49,0.48-0.9,0.85-1.26c0.37-0.35,0.83-0.63,1.38-0.83c0.55-0.2,1.16-0.31,1.85-0.31c1.02,0,1.9,0.22,2.64,0.67
			c0.74,0.45,1.25,1.07,1.52,1.88l-1.7,0.59c-0.14-0.49-0.42-0.88-0.83-1.17s-0.95-0.44-1.63-0.44c-0.42,0-0.79,0.07-1.11,0.2
			s-0.59,0.31-0.81,0.53c-0.22,0.22-0.38,0.47-0.5,0.77c-0.12,0.29-0.17,0.59-0.17,0.9v5.68c0,0.32,0.06,0.63,0.17,0.92
			c0.11,0.29,0.28,0.55,0.5,0.78c0.22,0.22,0.48,0.4,0.81,0.54c0.32,0.13,0.69,0.2,1.11,0.2c0.65,0,1.18-0.15,1.6-0.44
			c0.42-0.29,0.71-0.69,0.85-1.19L80.61,102.71z"/>
		<path class="st17" d="M89.12,103.47c-0.29,0.56-0.71,1.01-1.28,1.33c-0.57,0.33-1.21,0.49-1.93,0.49c-0.72,0-1.33-0.09-1.83-0.27
			c-0.5-0.18-0.92-0.46-1.24-0.85c-0.32-0.39-0.56-0.89-0.71-1.51c-0.15-0.61-0.23-1.35-0.23-2.22c0-0.6,0.05-1.19,0.16-1.77
			c0.11-0.58,0.3-1.1,0.58-1.56c0.28-0.46,0.67-0.83,1.16-1.11c0.49-0.28,1.12-0.42,1.88-0.42c1.21,0,2.13,0.34,2.78,1.03
			c0.64,0.68,0.96,1.63,0.96,2.83v1.48h-5.77c0,0.42,0.03,0.81,0.09,1.18c0.06,0.36,0.16,0.68,0.32,0.95
			c0.16,0.27,0.38,0.48,0.67,0.63c0.29,0.15,0.66,0.23,1.12,0.23c0.39,0,0.74-0.11,1.07-0.33c0.32-0.22,0.59-0.47,0.79-0.77
			L89.12,103.47z M87.67,99.66c0-0.88-0.17-1.54-0.51-1.98c-0.34-0.44-0.83-0.67-1.48-0.67c-0.75,0-1.26,0.24-1.54,0.71
			c-0.28,0.48-0.43,1.12-0.46,1.93H87.67z"/>
		<path class="st17" d="M93.32,96.84c0.33-0.5,0.7-0.83,1.12-1.01s0.91-0.26,1.49-0.26c0.42,0.03,0.74,0.1,0.97,0.21l-0.39,1.67
			c-0.34-0.14-0.7-0.21-1.06-0.21c-0.66,0-1.19,0.16-1.59,0.49c-0.4,0.33-0.6,0.85-0.6,1.56v5.89h-1.74v-9.47h1.74v1.13H93.32z"/>
		<path class="st17" d="M100.92,105.18c-0.82,0-1.43-0.21-1.84-0.62c-0.41-0.42-0.61-0.93-0.61-1.54v-6.06h-1.18v-1.27h1.18v-2.44
			h1.74v2.44h1.51v1.27h-1.51v5.6c0,0.4,0.09,0.69,0.26,0.89c0.17,0.2,0.45,0.3,0.84,0.3h0.58v1.44H100.92z"/>
	</g>
	<g>
		<g>
			<path class="st18" d="M271.03,93.21c1.8,0,3.24,0.59,4.33,1.76c1.04,1.11,1.56,2.5,1.56,4.18c0,1.74-0.55,3.16-1.64,4.27
				c-1.09,1.11-2.5,1.67-4.21,1.67c-1.81,0-3.29-0.56-4.45-1.67c-1.16-1.11-1.74-2.54-1.74-4.27c0-1.72,0.58-3.14,1.74-4.26
				C267.78,93.77,269.25,93.21,271.03,93.21z M270.99,94.65c-1.33,0-2.4,0.41-3.22,1.24c-0.82,0.83-1.23,1.91-1.23,3.25
				c0,1.35,0.41,2.44,1.23,3.26c0.82,0.83,1.9,1.24,3.24,1.24c1.23,0,2.25-0.42,3.05-1.27c0.8-0.85,1.2-1.93,1.2-3.23
				c0-1.21-0.37-2.25-1.11-3.12C273.36,95.11,272.3,94.65,270.99,94.65z"/>
			<path class="st18" d="M277.59,101.97l1.43-0.86c0.49,0.88,1.08,1.53,1.78,1.93s1.58,0.6,2.64,0.6c1.05,0,1.88-0.2,2.5-0.6
				c0.62-0.4,0.93-0.94,0.93-1.62c0-1.13-0.73-1.76-2.17-1.88l-3.24-0.25c-1.03-0.08-1.83-0.34-2.4-0.79
				c-0.26-0.21-0.48-0.48-0.64-0.83c-0.16-0.35-0.25-0.7-0.25-1.05c0-0.97,0.44-1.78,1.32-2.43c0.88-0.65,1.97-0.98,3.27-0.98
				c2.35,0,4.11,0.79,5.27,2.38l-1.32,0.73c-0.94-1.07-2.16-1.6-3.63-1.6c-0.99,0-1.79,0.16-2.39,0.48c-0.6,0.32-0.9,0.74-0.9,1.27
				c0,0.33,0.16,0.59,0.48,0.79c0.32,0.2,0.78,0.33,1.37,0.37l2.82,0.18c1.1,0.06,1.98,0.31,2.64,0.75
				c0.43,0.27,0.77,0.66,1.02,1.17c0.25,0.51,0.38,1.06,0.38,1.64c0,0.6-0.15,1.15-0.43,1.67c-0.29,0.52-0.68,0.92-1.16,1.21
				c-0.93,0.57-2.06,0.85-3.39,0.85c-1.4,0-2.56-0.24-3.49-0.73C279.11,103.87,278.29,103.08,277.59,101.97z"/>
		</g>
		<path class="st18" d="M229.45,93.69h-2.04l-5.63,10.85h2.03l1.35-2.8h6.47l1.42,2.8h1.99L229.45,93.69z M225.92,100.33l2.49-4.95
			l2.57,4.95H225.92z"/>
		<polygon class="st18" points="233.82,93.55 237.69,98.95 235.04,102.78 235.89,104.55 238.87,100.33 241.71,104.55 243.97,104.55 
			239.99,99.05 242.48,95.39 241.63,93.55 238.89,97.57 236.15,93.55 		"/>
		<polygon class="st18" points="244.78,93.7 244.78,104.55 254.51,104.55 254.51,103.05 246.39,102.97 246.39,99.64 253.21,99.64 
			253.21,98.11 246.35,98.11 246.35,94.96 254.51,94.96 254.51,93.7 		"/>
		<polygon class="st18" points="255.47,93.7 255.47,104.55 265.47,104.55 265.47,103.09 257,103.09 257,93.7 		"/>
	</g>
	<g>
		<path class="st18" d="M210.1,106.34c0,0-1.49-0.68-2.57-1.74c-0.84-0.82-1.57-2.21-1.12-4.57c0.36-1.88,2.16-4.88,6.25-4.46
			l-1.56-1.37l-3.02-0.11l-2.19,0.92c0,0-2.05,1.84-2.53,3.76c-0.33,1.32-0.4,3.26,1.11,5.33c1.82,2.49,3.96,2.34,3.96,2.34
			L210.1,106.34z"/>
		<path class="st28" d="M210.06,107.37c0,0-1.73-0.19-3.41-1.12c-1.63-0.9-2.25-1.93-2.69-2.94c0,0,1.49,1.98,3.03,2.5
			c1.18,0.4,3.38,0.74,4.97-0.46l1.15,0.42l-2.73,1.74L210.06,107.37z"/>
		<path class="st18" d="M209.11,107.7c0,0-1.44,0.86-4.62-1.54c-1.29-0.97-2.83-3.04-2.86-5.89c-0.03-2.72,1.8-7.16,7.07-7.9
			l-1.14-0.95h-3.74l-1.43,1.21l-2.35,2l-0.86,1.27c0,0-1.36,1.65-1.21,4.59c0,0-0.09,3.16,1.63,4.92c1.71,1.76,3.05,2.64,3.05,2.64
			l5.52,0.92l1.58-0.18L209.11,107.7z"/>
		<path class="st29" d="M215.93,106.36c0,0-1.6,2.09-4.37,3.08c-1.44,0.51-3.8,1.15-6.99,0c-4.09-1.47-5.7-5.05-5.77-5.19
			c-0.09-0.18-0.14-0.33-0.23-0.52c0,0,1.6,3.43,5.87,4.35c1.61,0.35,4.52,0.04,6.4-1.62c1.21-1.07,3.03-2.71,3.45-6
			c0.23-1.79,0.05-5.11-4.15-5.91c-1.75-0.34-4.58-0.17-6.38,3.23c0,0,1.02-4.11,6.43-4.82l4.46,0.76l2.95,6.97v4.29L215.93,106.36z
			"/>
		<path class="st28" d="M221.53,109.65c0,0-4.2,0.82-5.8-3.25c-0.47-1.2-0.67-2.23-0.64-5.1c0.01-1.27-0.54-4.91-3.6-7.41
			c-1.18-0.96-2.83-1.99-5.78-1.85c-2.37,0.11-5.53,1.57-7.46,5.92c0,0,1.03-5.59,7.38-7.5c2.77-0.83,7.33-0.74,11.02,3.52
			c1.4,1.61,2.8,4.62,2.2,8.23C218.52,104.17,217.79,109.35,221.53,109.65z"/>
	</g>
	<line class="st32" x1="18.02" y1="80.21" x2="289.98" y2="80.21"/>
</g>
</svg>
