<?xml version="1.0" encoding="utf-8"?>
<!-- Generator: Adobe Illustrator 23.0.5, SVG Export Plug-In . SVG Version: 6.00 Build 0)  -->
<svg version="1.1" id="Layer_1" xmlns="http://www.w3.org/2000/svg" xmlns:xlink="http://www.w3.org/1999/xlink" x="0px" y="0px"
	 viewBox="0 0 308 126" style="enable-background:new 0 0 308 126;" xml:space="preserve">
<style type="text/css">
	.st0{fill:#FFFFFF;}
	.st1{fill:#07407D;}
	.st2{fill:#A50949;}
	.st3{fill:#A6094A;}
	.st4{fill:#1BA6E3;}
	.st5{fill:#1BA5DF;}
	.st6{fill:#1BA5E2;}
	.st7{fill:#166BA1;}
	.st8{fill:#3BAC93;}
	.st9{fill:#1E2E5C;}
	.st10{fill:#6DB246;}
	.st11{fill:#186B9E;}
	.st12{fill:#3AAB90;}
	.st13{fill:#07407C;}
	.st14{fill:none;stroke:#07407C;stroke-miterlimit:10;}
	.st15{fill:#4C262D;}
	.st16{fill:#66215B;}
	.st17{fill:#997097;}
	.st18{fill:#4D2432;}
	.st19{fill:#5F2361;}
	.st20{fill:#9D74A0;}
	.st21{fill:#5E2260;}
	.st22{fill:#5D5E5F;}
	.st23{stroke:#000000;stroke-miterlimit:10;}
	.st24{fill:#606060;}
	.st25{fill:none;stroke:#676565;stroke-width:0.5;stroke-miterlimit:10;}
	.st26{fill:none;stroke:#1E1E1D;stroke-width:0.25;stroke-miterlimit:10;}
	.st27{fill:#F58020;}
	.st28{fill:#EF402A;}
	.st29{fill:#E73C1E;}
	.st30{fill:#4B3290;}
	.st31{fill:#F16222;}
	.st32{fill:#533693;}
	.st33{fill:#00BFE0;}
	.st34{fill:#1E70B8;}
	.st35{fill:#585758;}
	.st36{fill:#7E9AD0;}
	.st37{fill:#6C213E;}
	.st38{fill:#73243B;}
	.st39{fill:#C51315;}
	.st40{fill:#975B67;}
	.st41{fill:none;stroke:#1E70B8;stroke-miterlimit:10;}
	.st42{fill:none;stroke:#66215B;stroke-miterlimit:10;}
	.st43{fill:#4D3D7E;}
	.st44{fill:#1E193D;}
	.st45{fill:#AA9EC2;}
	.st46{fill:none;stroke:#4D3D7E;stroke-miterlimit:10;}
	.st47{fill:#4674C1;}
	.st48{fill:none;stroke:#4674C1;stroke-miterlimit:10;}
	.st49{fill:#0D4E85;}
	.st50{fill:#172846;}
	.st51{fill:#AAB1CE;}
	.st52{fill:none;stroke:#0D4E85;stroke-miterlimit:10;}
	.st53{fill:#13ADC5;}
	.st54{fill:#136173;}
	.st55{fill:#A8D5E2;}
	.st56{fill:none;stroke:#13ADC5;stroke-miterlimit:10;}
	.st57{fill:#6A737B;}
	.st58{fill:#FCB034;}
	.st59{fill:#6A747B;}
	.st60{fill:#6A737C;}
	.st61{fill:#514080;}
	.st62{fill:#1A0B3C;}
	.st63{fill:#523B39;}
	.st64{fill:#2A221F;}
	.st65{fill:#B2A4A3;}
	.st66{fill:none;stroke:#523B39;stroke-miterlimit:10;}
	.st67{fill:#3BBFF0;}
	.st68{fill:#FF6700;}
	.st69{fill:#00A4E4;}
	.st70{fill:#6DB23F;}
	.st71{fill:#0B7054;}
	.st72{fill:#0B7054;stroke:#000000;stroke-miterlimit:10;}
	.st73{fill:#007B91;}
	.st74{fill:#008B78;}
	.st75{fill:#008A78;}
	.st76{fill:none;stroke:#316D78;stroke-width:2;stroke-miterlimit:10;}
	.st77{fill:#E21936;}
	.st78{fill:#636365;}
	.st79{fill:none;stroke:#0B7054;stroke-miterlimit:10;}
	.st80{fill:url(#SVGID_1_);}
	.st81{fill:#F1592A;}
	.st82{fill:#DEDFE1;}
	.st83{fill:#040707;}
	.st84{fill:none;stroke:#040707;stroke-width:2;stroke-miterlimit:10;}
	.st85{fill:none;stroke:#000000;stroke-miterlimit:10;}
	.st86{fill:url(#SVGID_2_);}
	.st87{fill:none;stroke:#040707;stroke-width:0.5;stroke-miterlimit:10;}
	.st88{fill:#FFFFFD;}
	.st89{fill:none;stroke:#020202;stroke-miterlimit:10;}
	.st90{fill:none;stroke:#C51315;stroke-miterlimit:10;}
</style>
<g>
	<rect x="-3.38" y="-0.78" class="st0" width="314.76" height="127.56"/>
	<path class="st0" d="M310.88-0.28v126.56H-2.88V-0.28H310.88 M311.88-1.28H-3.88v128.56h315.76V-1.28L311.88-1.28z"/>
</g>
<g>
	<path class="st22" d="M301.97,6.16v113.68H6.93V6.16H301.97 M303.97,4.16H4.93v117.68h299.04V4.16L303.97,4.16z"/>
</g>
<g>
	<g>
		<g>
			<g>
				<rect x="191.65" y="44.66" class="st23" width="3.54" height="43.89"/>
			</g>
		</g>
		<path d="M213.62,53.72c-0.92-6.16-4.41-8.58-7.27-9.06c-8.39-1.42-11.16,4.24-11.16,4.24v20.42c3.13,4.63,7.98,4.28,10.69,3.64
			C215.01,70.8,214.38,58.85,213.62,53.72z M210.03,63.19c-0.87,6.39-5.95,7.01-8.64,6.61c-5.54-0.82-5.86-7.62-5.86-7.62v-6.3
			c0.31-3.13,1.65-5.85,3.26-6.83c3.23-1.98,6.8-1.23,8.55,0C210.79,51.47,210.51,59.62,210.03,63.19z"/>
	</g>
	<path d="M236.38,50.06l2.12-2.91c0,0-5.5-4.05-14.45-1.94c-2.51,0.59-5.89,3.54-5.64,8.64c0.14,2.85,3.07,5.91,9.61,6.17
		c2.29,0.09,7.42,0.38,7.49,5.29c0.03,2.24-1.09,4.76-7.47,4.94c-2.45,0.07-5.4-0.35-9.19-3.44l-2.25,2.78c0,0,7.77,6,17.71,2.45
		c1.91-0.68,4.43-3.16,4.89-6.48c0.47-3.41-2.51-8.31-10.71-8.66c-1.85-0.08-6.31-1.02-6.48-3.57c-0.1-1.55,0.34-4.1,3.37-5.22
		C228,47.13,231.57,46.8,236.38,50.06z"/>
	<g>
		<path class="st24" d="M71.99,115.51h-1.41l-0.56-1.78h-2.57l-0.53,1.78h-1.38l2.51-7.85h1.38L71.99,115.51z M69.59,112.4
			l-0.89-2.91l-0.87,2.91H69.59z"/>
		<path class="st24" d="M76.8,112.62l1.26,0.49c-0.19,0.86-0.51,1.49-0.96,1.91c-0.45,0.42-1.02,0.62-1.71,0.62
			c-0.86,0-1.56-0.36-2.11-1.07c-0.55-0.71-0.83-1.69-0.83-2.92c0-1.31,0.28-2.32,0.83-3.04c0.55-0.72,1.28-1.08,2.18-1.08
			c0.79,0,1.43,0.28,1.92,0.85c0.29,0.33,0.51,0.82,0.66,1.44l-1.29,0.37c-0.08-0.41-0.23-0.73-0.48-0.96
			c-0.24-0.24-0.54-0.35-0.88-0.35c-0.48,0-0.86,0.21-1.16,0.63c-0.3,0.42-0.45,1.09-0.45,2.03c0,0.99,0.15,1.7,0.44,2.12
			c0.29,0.42,0.67,0.63,1.14,0.63c0.35,0,0.64-0.13,0.89-0.4C76.51,113.62,76.69,113.19,76.8,112.62z"/>
		<path class="st24" d="M83.3,112.62l1.26,0.49c-0.19,0.86-0.51,1.49-0.96,1.91c-0.45,0.42-1.02,0.62-1.71,0.62
			c-0.86,0-1.56-0.36-2.11-1.07c-0.55-0.71-0.83-1.69-0.83-2.92c0-1.31,0.28-2.32,0.83-3.04c0.55-0.72,1.28-1.08,2.18-1.08
			c0.79,0,1.43,0.28,1.92,0.85c0.29,0.33,0.51,0.82,0.66,1.44l-1.29,0.37c-0.08-0.41-0.23-0.73-0.48-0.96
			c-0.24-0.24-0.54-0.35-0.88-0.35c-0.48,0-0.86,0.21-1.16,0.63c-0.3,0.42-0.45,1.09-0.45,2.03c0,0.99,0.15,1.7,0.44,2.12
			c0.29,0.42,0.67,0.63,1.14,0.63c0.35,0,0.64-0.13,0.89-0.4C83.01,113.62,83.19,113.19,83.3,112.62z"/>
		<path class="st24" d="M85.68,115.51v-7.85h2.74c0.69,0,1.19,0.07,1.5,0.21c0.31,0.14,0.56,0.39,0.75,0.75
			c0.19,0.36,0.28,0.77,0.28,1.24c0,0.59-0.14,1.08-0.43,1.46c-0.28,0.38-0.71,0.63-1.27,0.73c0.28,0.2,0.51,0.42,0.7,0.66
			c0.18,0.24,0.43,0.66,0.74,1.27l0.79,1.53h-1.56l-0.94-1.71c-0.33-0.61-0.56-0.99-0.69-1.15c-0.12-0.16-0.25-0.27-0.39-0.33
			c-0.14-0.06-0.36-0.09-0.65-0.09h-0.26v3.28H85.68z M86.98,110.98h0.96c0.62,0,1.01-0.03,1.17-0.1c0.16-0.06,0.28-0.18,0.36-0.33
			s0.13-0.35,0.13-0.59c0-0.26-0.06-0.48-0.17-0.64c-0.12-0.16-0.28-0.27-0.49-0.31c-0.11-0.02-0.42-0.03-0.95-0.03h-1.01V110.98z"
			/>
		<path class="st24" d="M92.17,115.51v-7.85h4.78v1.33h-3.48v1.74h3.23v1.32h-3.23v2.14h3.6v1.32H92.17z"/>
		<path class="st24" d="M98.17,107.66h2.38c0.54,0,0.94,0.05,1.23,0.15c0.38,0.14,0.7,0.38,0.97,0.72c0.27,0.35,0.47,0.77,0.61,1.27
			c0.14,0.5,0.21,1.12,0.21,1.85c0,0.65-0.07,1.2-0.2,1.67c-0.16,0.57-0.39,1.03-0.69,1.39c-0.23,0.27-0.53,0.48-0.91,0.63
			c-0.29,0.11-0.67,0.17-1.15,0.17h-2.45V107.66z M99.47,108.99v5.2h0.97c0.36,0,0.63-0.03,0.79-0.08c0.21-0.06,0.39-0.17,0.53-0.33
			c0.14-0.15,0.25-0.41,0.34-0.76c0.09-0.35,0.13-0.83,0.13-1.44c0-0.61-0.04-1.07-0.13-1.4s-0.21-0.58-0.37-0.76
			c-0.16-0.18-0.36-0.31-0.6-0.37c-0.18-0.05-0.54-0.08-1.07-0.08H99.47z"/>
		<path class="st24" d="M104.63,115.51v-7.85h1.3v7.85H104.63z"/>
		<path class="st24" d="M108.62,115.51v-6.52h-1.91v-1.33h5.12v1.33h-1.91v6.52H108.62z"/>
		<path class="st24" d="M112.67,115.51v-7.85h4.78v1.33h-3.48v1.74h3.23v1.32h-3.23v2.14h3.6v1.32H112.67z"/>
		<path class="st24" d="M118.67,107.66h2.38c0.54,0,0.94,0.05,1.23,0.15c0.38,0.14,0.7,0.38,0.97,0.72
			c0.27,0.35,0.47,0.77,0.61,1.27c0.14,0.5,0.21,1.12,0.21,1.85c0,0.65-0.07,1.2-0.2,1.67c-0.16,0.57-0.39,1.03-0.69,1.39
			c-0.23,0.27-0.53,0.48-0.91,0.63c-0.29,0.11-0.67,0.17-1.15,0.17h-2.45V107.66z M119.97,108.99v5.2h0.97
			c0.36,0,0.63-0.03,0.79-0.08c0.21-0.06,0.39-0.17,0.53-0.33c0.14-0.15,0.25-0.41,0.34-0.76c0.09-0.35,0.13-0.83,0.13-1.44
			c0-0.61-0.04-1.07-0.13-1.4s-0.21-0.58-0.37-0.76c-0.16-0.18-0.36-0.31-0.6-0.37c-0.18-0.05-0.54-0.08-1.07-0.08H119.97z"/>
		<path class="st24" d="M129.12,115.51v-6.52h-1.91v-1.33h5.12v1.33h-1.91v6.52H129.12z"/>
		<path class="st24" d="M133.17,115.51v-7.85h2.74c0.69,0,1.19,0.07,1.5,0.21c0.31,0.14,0.56,0.39,0.75,0.75
			c0.19,0.36,0.28,0.77,0.28,1.24c0,0.59-0.14,1.08-0.43,1.46c-0.28,0.38-0.71,0.63-1.27,0.73c0.28,0.2,0.51,0.42,0.7,0.66
			c0.18,0.24,0.43,0.66,0.74,1.27l0.79,1.53h-1.56l-0.94-1.71c-0.33-0.61-0.56-0.99-0.69-1.15c-0.12-0.16-0.25-0.27-0.39-0.33
			c-0.14-0.06-0.36-0.09-0.65-0.09h-0.26v3.28H133.17z M134.47,110.98h0.96c0.62,0,1.01-0.03,1.17-0.1
			c0.16-0.06,0.28-0.18,0.36-0.33s0.13-0.35,0.13-0.59c0-0.26-0.06-0.48-0.17-0.64c-0.12-0.16-0.28-0.27-0.49-0.31
			c-0.11-0.02-0.42-0.03-0.95-0.03h-1.01V110.98z"/>
		<path class="st24" d="M145.48,115.51h-1.41l-0.56-1.78h-2.57l-0.53,1.78h-1.38l2.51-7.85h1.38L145.48,115.51z M143.08,112.4
			l-0.89-2.91l-0.87,2.91H143.08z"/>
		<path class="st24" d="M146.13,115.51v-7.85h1.3v7.85H146.13z"/>
		<path class="st24" d="M148.68,115.51v-7.85h1.27l2.64,5.24v-5.24h1.21v7.85h-1.31l-2.6-5.12v5.12H148.68z"/>
		<path class="st24" d="M155.12,115.51v-7.85h1.3v7.85H155.12z"/>
		<path class="st24" d="M157.68,115.51v-7.85h1.27l2.64,5.24v-5.24h1.21v7.85h-1.31l-2.6-5.12v5.12H157.68z"/>
		<path class="st24" d="M167.16,112.62v-1.32h2.8v3.13c-0.27,0.32-0.67,0.6-1.18,0.85c-0.52,0.24-1.04,0.37-1.57,0.37
			c-0.67,0-1.26-0.17-1.76-0.52c-0.5-0.34-0.88-0.84-1.13-1.48c-0.25-0.64-0.38-1.34-0.38-2.09c0-0.82,0.14-1.54,0.42-2.18
			c0.28-0.64,0.69-1.12,1.23-1.46c0.41-0.26,0.93-0.39,1.54-0.39c0.8,0,1.42,0.2,1.87,0.61c0.45,0.41,0.74,0.97,0.87,1.69
			l-1.29,0.29c-0.09-0.39-0.26-0.69-0.51-0.91c-0.25-0.22-0.56-0.33-0.94-0.33c-0.57,0-1.02,0.22-1.36,0.66
			c-0.34,0.44-0.5,1.09-0.5,1.95c0,0.93,0.17,1.63,0.51,2.1c0.34,0.46,0.79,0.7,1.34,0.7c0.27,0,0.55-0.06,0.82-0.19
			c0.27-0.13,0.51-0.29,0.71-0.47v-1H167.16z"/>
		<path class="st24" d="M173.4,111.63c0-0.8,0.1-1.47,0.29-2.01c0.15-0.4,0.35-0.76,0.6-1.08c0.25-0.32,0.53-0.55,0.83-0.71
			c0.4-0.21,0.86-0.31,1.39-0.31c0.95,0,1.71,0.36,2.28,1.08s0.85,1.71,0.85,2.99c0,1.27-0.28,2.26-0.85,2.97
			c-0.57,0.72-1.32,1.07-2.27,1.07c-0.96,0-1.72-0.36-2.29-1.07C173.68,113.86,173.4,112.88,173.4,111.63z M174.74,111.58
			c0,0.89,0.17,1.56,0.51,2.02c0.34,0.46,0.76,0.69,1.28,0.69c0.52,0,0.94-0.23,1.28-0.68c0.33-0.46,0.5-1.14,0.5-2.05
			c0-0.9-0.16-1.57-0.49-2.01c-0.32-0.44-0.75-0.66-1.29-0.66c-0.54,0-0.97,0.22-1.3,0.67S174.74,110.67,174.74,111.58z"/>
		<path class="st24" d="M180.67,115.51v-7.85h2.74c0.69,0,1.19,0.07,1.5,0.21c0.31,0.14,0.56,0.39,0.75,0.75
			c0.19,0.36,0.28,0.77,0.28,1.24c0,0.59-0.14,1.08-0.43,1.46c-0.28,0.38-0.71,0.63-1.27,0.73c0.28,0.2,0.51,0.42,0.7,0.66
			c0.18,0.24,0.43,0.66,0.74,1.27l0.79,1.53h-1.56l-0.94-1.71c-0.33-0.61-0.56-0.99-0.69-1.15c-0.12-0.16-0.25-0.27-0.39-0.33
			c-0.14-0.06-0.36-0.09-0.65-0.09h-0.26v3.28H180.67z M181.97,110.98h0.96c0.62,0,1.01-0.03,1.17-0.1
			c0.16-0.06,0.28-0.18,0.36-0.33c0.09-0.16,0.13-0.35,0.13-0.59c0-0.26-0.06-0.48-0.17-0.64c-0.12-0.16-0.28-0.27-0.49-0.31
			c-0.11-0.02-0.42-0.03-0.95-0.03h-1.01V110.98z"/>
		<path class="st24" d="M190.16,112.62v-1.32h2.8v3.13c-0.27,0.32-0.67,0.6-1.18,0.85c-0.52,0.24-1.04,0.37-1.57,0.37
			c-0.67,0-1.26-0.17-1.76-0.52c-0.5-0.34-0.88-0.84-1.13-1.48c-0.25-0.64-0.38-1.34-0.38-2.09c0-0.82,0.14-1.54,0.42-2.18
			c0.28-0.64,0.69-1.12,1.23-1.46c0.41-0.26,0.93-0.39,1.54-0.39c0.8,0,1.42,0.2,1.87,0.61c0.45,0.41,0.74,0.97,0.87,1.69
			l-1.29,0.29c-0.09-0.39-0.26-0.69-0.51-0.91c-0.25-0.22-0.56-0.33-0.94-0.33c-0.57,0-1.02,0.22-1.36,0.66
			c-0.34,0.44-0.5,1.09-0.5,1.95c0,0.93,0.17,1.63,0.51,2.1c0.34,0.46,0.79,0.7,1.34,0.7c0.27,0,0.55-0.06,0.82-0.19
			c0.27-0.13,0.51-0.29,0.71-0.47v-1H190.16z"/>
		<path class="st24" d="M199.97,115.51h-1.41l-0.56-1.78h-2.57l-0.53,1.78h-1.38l2.51-7.85h1.38L199.97,115.51z M197.58,112.4
			l-0.89-2.91l-0.87,2.91H197.58z"/>
		<path class="st24" d="M200.67,115.51v-7.85h1.27l2.64,5.24v-5.24h1.21v7.85h-1.31l-2.6-5.12v5.12H200.67z"/>
		<path class="st24" d="M207.12,115.51v-7.85h1.3v7.85H207.12z"/>
		<path class="st24" d="M209.1,115.51v-1.43l3.38-5.09h-3v-1.33h4.71v1.23l-3.53,5.3h3.66v1.32H209.1z"/>
		<path class="st24" d="M220.97,115.51h-1.41l-0.56-1.78h-2.57l-0.53,1.78h-1.38l2.51-7.85h1.38L220.97,115.51z M218.57,112.4
			l-0.89-2.91l-0.87,2.91H218.57z"/>
		<path class="st24" d="M222.44,115.51v-6.52h-1.91v-1.33h5.12v1.33h-1.91v6.52H222.44z"/>
		<path class="st24" d="M226.44,115.51v-7.85h1.3v7.85H226.44z"/>
		<path class="st24" d="M228.72,111.63c0-0.8,0.1-1.47,0.29-2.01c0.15-0.4,0.35-0.76,0.6-1.08c0.25-0.32,0.53-0.55,0.83-0.71
			c0.4-0.21,0.86-0.31,1.39-0.31c0.95,0,1.71,0.36,2.28,1.08s0.85,1.71,0.85,2.99c0,1.27-0.28,2.26-0.85,2.97
			c-0.57,0.72-1.32,1.07-2.27,1.07c-0.96,0-1.72-0.36-2.29-1.07C229,113.86,228.72,112.88,228.72,111.63z M230.06,111.58
			c0,0.89,0.17,1.56,0.51,2.02c0.34,0.46,0.76,0.69,1.28,0.69c0.52,0,0.94-0.23,1.28-0.68c0.33-0.46,0.5-1.14,0.5-2.05
			c0-0.9-0.16-1.57-0.49-2.01c-0.32-0.44-0.75-0.66-1.29-0.66s-0.97,0.22-1.3,0.67C230.22,110,230.06,110.67,230.06,111.58z"/>
		<path class="st24" d="M236,115.51v-7.85h1.27l2.64,5.24v-5.24h1.21v7.85h-1.31l-2.6-5.12v5.12H236z"/>
	</g>
	<line class="st25" x1="58.66" y1="92.98" x2="146.66" y2="92.98"/>
	<line class="st25" x1="161.34" y1="92.98" x2="249.34" y2="92.98"/>
	<circle class="st26" cx="154.06" cy="92.98" r="7.48"/>
	<circle class="st26" cx="154.1" cy="93.02" r="5.63"/>
	<polygon class="st27" points="154.1,89.16 154.98,91.84 157.8,91.84 155.52,93.5 156.39,96.19 154.1,94.53 151.82,96.19 
		152.69,93.5 150.41,91.84 153.23,91.84 	"/>
	<circle class="st28" cx="244.28" cy="73" r="5.04"/>
	<path class="st27" d="M186.32,32.08c-0.88-17.27-15.8-19.89-23.27-19.04c-13.55,1.54-16.26,10.93-17.45,15.28
		c-0.25,0.93-0.66,3.07-0.71,4.11c-0.24,5.85-0.98,17.66,0,23.44c2.69,15.82,14.62,17.64,21.56,17.64
		c13.51,0,19.42-11.3,19.86-19.14C186.64,48.81,186.61,37.65,186.32,32.08z M180.47,52.4c-0.32,6.45-3.23,15.72-14.29,15.73
		c-5.46,0.01-14.32-1.76-15.51-14.5c-0.45-4.78-0.18-14.45,0-19.27c0.03-0.89,0.11-2.66,0.25-3.53c0.63-3.85,3.06-11.14,12.81-12.41
		c5.38-0.7,16.11,1.45,16.74,15.65C180.68,38.64,180.7,47.82,180.47,52.4z"/>
	<g>
		<path d="M69.05,14.58c0,0.47-0.07,0.93-0.21,1.37c-0.14,0.44-0.36,0.83-0.66,1.16c-0.3,0.34-0.69,0.61-1.18,0.81
			c-0.49,0.21-1.07,0.31-1.77,0.31h-2.28v4.94h-1.59V10.89h3.8c1.24,0,2.2,0.3,2.88,0.91C68.71,12.4,69.05,13.33,69.05,14.58z
			 M67.44,14.56c0-0.71-0.18-1.26-0.54-1.68c-0.36-0.41-0.95-0.62-1.78-0.62h-2.17v4.59h2.19c0.45,0,0.82-0.06,1.11-0.19
			c0.29-0.13,0.53-0.3,0.71-0.51c0.18-0.21,0.3-0.46,0.37-0.73C67.41,15.14,67.44,14.85,67.44,14.56z"/>
		<path d="M75.96,21.6c-0.26,0.52-0.64,0.93-1.14,1.23c-0.51,0.3-1.08,0.45-1.72,0.45s-1.18-0.08-1.63-0.25
			c-0.45-0.16-0.82-0.43-1.1-0.78c-0.29-0.36-0.5-0.82-0.63-1.38c-0.13-0.56-0.2-1.25-0.2-2.05c0-0.55,0.05-1.1,0.14-1.63
			c0.1-0.53,0.27-1.01,0.52-1.44c0.25-0.42,0.59-0.76,1.03-1.02c0.44-0.26,0.99-0.39,1.67-0.39c1.08,0,1.9,0.31,2.47,0.94
			c0.57,0.63,0.86,1.5,0.86,2.6v1.36h-5.14c0,0.39,0.03,0.75,0.08,1.08c0.05,0.33,0.15,0.63,0.29,0.87
			c0.14,0.25,0.34,0.44,0.59,0.58c0.26,0.14,0.59,0.21,1,0.21c0.34,0,0.66-0.1,0.95-0.3c0.29-0.2,0.52-0.44,0.7-0.71L75.96,21.6z
			 M74.67,18.09c0-0.81-0.15-1.41-0.45-1.82c-0.3-0.41-0.74-0.61-1.31-0.61c-0.67,0-1.12,0.22-1.37,0.66
			c-0.25,0.44-0.39,1.03-0.41,1.78H74.67z"/>
		<path d="M81.22,14.33c0.75,0,1.35,0.14,1.78,0.41c0.43,0.28,0.78,0.62,1.04,1.03c0.09,0.14,0.17,0.33,0.23,0.56
			c0.06,0.23,0.11,0.48,0.15,0.76c0.04,0.28,0.07,0.56,0.09,0.86c0.02,0.3,0.03,0.59,0.03,0.86c0,0.16-0.01,0.36-0.02,0.6
			c-0.01,0.24-0.04,0.48-0.07,0.74c-0.03,0.26-0.07,0.51-0.11,0.74c-0.04,0.24-0.08,0.42-0.13,0.56c-0.12,0.34-0.28,0.63-0.51,0.86
			c-0.22,0.24-0.48,0.42-0.77,0.56c-0.29,0.14-0.59,0.24-0.92,0.31c-0.33,0.06-0.66,0.1-1.01,0.1c-0.73,0-1.33-0.14-1.79-0.42
			c-0.47-0.28-0.82-0.65-1.05-1.09c-0.17-0.32-0.28-0.74-0.35-1.26c-0.06-0.52-0.1-1.07-0.1-1.65c0-0.55,0.03-1.08,0.09-1.59
			c0.06-0.51,0.16-0.92,0.3-1.23c0.26-0.53,0.65-0.95,1.17-1.25C79.8,14.48,80.45,14.33,81.22,14.33z M81.19,15.62
			c-0.37,0-0.7,0.08-0.99,0.25c-0.29,0.16-0.51,0.41-0.65,0.74c-0.09,0.22-0.16,0.54-0.2,0.96c-0.04,0.42-0.07,0.9-0.07,1.45
			c0,0.39,0.01,0.75,0.03,1.09c0.02,0.34,0.08,0.63,0.18,0.86c0.14,0.32,0.34,0.56,0.61,0.74c0.27,0.18,0.6,0.26,1.01,0.26
			c0.39,0,0.74-0.09,1.04-0.26c0.3-0.18,0.52-0.46,0.66-0.84c0.06-0.16,0.11-0.44,0.13-0.84c0.03-0.39,0.04-0.83,0.04-1.31
			c0-0.41-0.01-0.8-0.04-1.17c-0.03-0.37-0.08-0.66-0.15-0.87c-0.14-0.35-0.35-0.61-0.63-0.79C81.88,15.7,81.56,15.62,81.19,15.62z"
			/>
		<path d="M87.8,15.26c0.28-0.33,0.6-0.57,0.96-0.71c0.36-0.15,0.76-0.22,1.2-0.22c0.62,0,1.12,0.12,1.49,0.36
			c0.37,0.24,0.66,0.57,0.86,0.97c0.2,0.41,0.34,0.88,0.4,1.42c0.06,0.54,0.1,1.11,0.1,1.69c0,0.55-0.03,1.1-0.11,1.63
			c-0.07,0.53-0.21,1.01-0.43,1.44c-0.22,0.42-0.52,0.76-0.92,1.02c-0.39,0.26-0.91,0.39-1.55,0.39c-0.79,0-1.46-0.29-2.01-0.86
			h-0.04v4.3H86.2V14.43h1.55v0.81c0.01,0,0.02,0,0.02,0.01C87.78,15.26,87.78,15.26,87.8,15.26z M89.46,21.84
			c0.4,0,0.71-0.08,0.94-0.25c0.23-0.16,0.41-0.39,0.54-0.66c0.13-0.28,0.21-0.6,0.25-0.96c0.04-0.36,0.06-0.75,0.06-1.16
			c0-0.42-0.02-0.82-0.06-1.2c-0.04-0.38-0.12-0.71-0.24-0.99c-0.12-0.28-0.3-0.51-0.53-0.68c-0.23-0.17-0.54-0.26-0.94-0.26
			c-0.46,0-0.81,0.11-1.05,0.33c-0.24,0.22-0.42,0.49-0.52,0.82c-0.1,0.33-0.16,0.69-0.16,1.08c-0.01,0.39-0.01,0.76-0.01,1.1
			c0,0.32,0.02,0.64,0.05,0.97c0.03,0.33,0.11,0.63,0.22,0.91c0.11,0.28,0.29,0.5,0.52,0.68C88.75,21.75,89.07,21.84,89.46,21.84z"
			/>
		<path d="M97.19,23.22c-0.75,0-1.35-0.15-1.78-0.44c-0.44-0.29-0.65-0.84-0.63-1.64V10.36h1.55v10.55c0,0.33,0.07,0.58,0.21,0.74
			c0.14,0.16,0.39,0.25,0.75,0.25h0.33v1.32H97.19z"/>
		<path d="M105.14,21.6c-0.26,0.52-0.64,0.93-1.14,1.23c-0.51,0.3-1.08,0.45-1.72,0.45s-1.18-0.08-1.63-0.25
			c-0.45-0.16-0.82-0.43-1.1-0.78c-0.29-0.36-0.5-0.82-0.63-1.38c-0.13-0.56-0.2-1.25-0.2-2.05c0-0.55,0.05-1.1,0.14-1.63
			c0.1-0.53,0.27-1.01,0.52-1.44c0.25-0.42,0.59-0.76,1.03-1.02c0.44-0.26,0.99-0.39,1.67-0.39c1.08,0,1.9,0.31,2.47,0.94
			c0.57,0.63,0.86,1.5,0.86,2.6v1.36h-5.14c0,0.39,0.03,0.75,0.08,1.08c0.05,0.33,0.15,0.63,0.29,0.87
			c0.14,0.25,0.34,0.44,0.59,0.58c0.26,0.14,0.59,0.21,1,0.21c0.34,0,0.66-0.1,0.95-0.3c0.29-0.2,0.52-0.44,0.7-0.71L105.14,21.6z
			 M103.85,18.09c0-0.81-0.15-1.41-0.45-1.82c-0.3-0.41-0.74-0.61-1.31-0.61c-0.67,0-1.12,0.22-1.37,0.66
			c-0.25,0.44-0.39,1.03-0.41,1.78H103.85z"/>
		<path class="st29" d="M114.69,20.89c-0.23,0.78-0.67,1.37-1.33,1.77c-0.66,0.41-1.45,0.61-2.37,0.61c-0.6,0-1.14-0.09-1.63-0.27
			c-0.49-0.18-0.9-0.44-1.23-0.76c-0.33-0.32-0.59-0.71-0.77-1.16c-0.18-0.45-0.27-0.94-0.27-1.48v-5.15c0-0.52,0.09-1,0.26-1.45
			c0.17-0.45,0.43-0.83,0.76-1.16c0.33-0.32,0.74-0.58,1.23-0.77c0.49-0.19,1.04-0.28,1.65-0.28c0.91,0,1.69,0.21,2.35,0.62
			c0.66,0.41,1.11,0.99,1.35,1.73l-1.52,0.55c-0.13-0.45-0.37-0.81-0.74-1.08c-0.36-0.27-0.85-0.41-1.45-0.41
			c-0.37,0-0.7,0.06-0.99,0.18c-0.29,0.12-0.53,0.29-0.72,0.48c-0.19,0.2-0.34,0.44-0.44,0.71c-0.1,0.27-0.15,0.55-0.15,0.83v5.22
			c0,0.29,0.05,0.58,0.15,0.85c0.1,0.27,0.25,0.51,0.44,0.71c0.19,0.21,0.43,0.37,0.72,0.49c0.29,0.12,0.62,0.19,0.99,0.19
			c0.58,0,1.05-0.14,1.43-0.41c0.38-0.27,0.63-0.63,0.76-1.09L114.69,20.89z"/>
		<path class="st29" d="M122.27,21.6c-0.26,0.52-0.64,0.93-1.14,1.23c-0.51,0.3-1.08,0.45-1.72,0.45s-1.18-0.08-1.63-0.25
			c-0.45-0.16-0.82-0.43-1.1-0.78c-0.29-0.36-0.5-0.82-0.63-1.38c-0.13-0.56-0.2-1.25-0.2-2.05c0-0.55,0.05-1.1,0.14-1.63
			c0.1-0.53,0.27-1.01,0.52-1.44c0.25-0.42,0.59-0.76,1.03-1.02c0.44-0.26,0.99-0.39,1.67-0.39c1.08,0,1.9,0.31,2.47,0.94
			c0.57,0.63,0.86,1.5,0.86,2.6v1.36h-5.14c0,0.39,0.03,0.75,0.08,1.08c0.05,0.33,0.15,0.63,0.29,0.87
			c0.14,0.25,0.34,0.44,0.59,0.58c0.26,0.14,0.59,0.21,1,0.21c0.34,0,0.66-0.1,0.95-0.3c0.29-0.2,0.52-0.44,0.7-0.71L122.27,21.6z
			 M120.98,18.09c0-0.81-0.15-1.41-0.45-1.82c-0.3-0.41-0.74-0.61-1.31-0.61c-0.67,0-1.12,0.22-1.37,0.66
			c-0.25,0.44-0.39,1.03-0.41,1.78H120.98z"/>
		<path class="st29" d="M126.01,15.49c0.29-0.46,0.63-0.77,1-0.93c0.37-0.16,0.81-0.24,1.32-0.24c0.37,0.02,0.66,0.09,0.86,0.19
			l-0.34,1.53c-0.31-0.13-0.62-0.19-0.94-0.19c-0.59,0-1.06,0.15-1.42,0.45c-0.36,0.3-0.54,0.78-0.54,1.44v5.41h-1.55v-8.71h1.55
			v1.04H126.01z"/>
		<path class="st29" d="M132.78,23.17c-0.73,0-1.28-0.19-1.64-0.57c-0.36-0.38-0.55-0.86-0.55-1.42V15.6h-1.06v-1.16h1.06v-2.24
			h1.55v2.24h1.34v1.16h-1.34v5.15c0,0.36,0.08,0.64,0.23,0.82c0.15,0.18,0.4,0.27,0.75,0.27h0.52v1.32H132.78z"/>
	</g>
	<g>
		<path class="st23" d="M88.41,60.56c0,1.86-0.3,3.55-0.89,5.08c-0.6,1.53-1.44,2.83-2.54,3.91c-1.1,1.08-2.42,1.93-3.96,2.54
			C79.47,72.7,77.75,73,75.85,73H61.79V34.55h14.23c1.9,0,3.62,0.31,5.16,0.92c1.54,0.61,2.85,1.48,3.91,2.6
			c1.06,1.12,1.88,2.45,2.46,3.99c0.58,1.54,0.86,3.25,0.86,5.11V60.56z M85.68,47.63c0-1.94-0.3-3.58-0.89-4.92
			c-0.6-1.34-1.36-2.43-2.29-3.27c-0.93-0.84-1.99-1.45-3.18-1.85C78.12,37.2,76.95,37,75.8,37H64.47v33.71h10.66
			c1.27,0,2.52-0.19,3.77-0.56c1.25-0.37,2.37-0.98,3.38-1.82s1.82-1.93,2.46-3.27c0.63-1.34,0.95-3,0.95-4.98V47.63z"/>
		<path class="st23" d="M96.34,60.33v2.57c0,1.53,0.24,2.81,0.73,3.85c0.48,1.04,1.12,1.89,1.9,2.54c0.78,0.65,1.67,1.13,2.68,1.42
			c1,0.3,2.05,0.45,3.13,0.45c1.53,0,2.9-0.26,4.13-0.78c1.23-0.52,2.33-1.25,3.29-2.18l1.56,1.79c-1.15,1.15-2.49,2-4.02,2.54
			c-1.53,0.54-3.22,0.81-5.08,0.81c-1.56,0-3.01-0.21-4.33-0.64c-1.32-0.43-2.47-1.06-3.43-1.9c-0.97-0.84-1.72-1.88-2.26-3.13
			c-0.54-1.25-0.81-2.69-0.81-4.33v-7.76c0-1.56,0.26-2.98,0.78-4.24c0.52-1.26,1.26-2.35,2.2-3.27c0.95-0.91,2.08-1.61,3.4-2.09
			c1.32-0.48,2.76-0.73,4.33-0.73c1.53,0,2.92,0.25,4.19,0.75c1.26,0.5,2.36,1.2,3.29,2.09c0.93,0.89,1.65,1.97,2.15,3.24
			c0.5,1.27,0.75,2.64,0.75,4.13v4.86H96.34z M112.41,55.81c0-1.49-0.23-2.75-0.7-3.8c-0.47-1.04-1.07-1.9-1.81-2.57
			c-0.75-0.67-1.58-1.15-2.51-1.45c-0.93-0.3-1.88-0.45-2.85-0.45c-1,0-2,0.16-2.99,0.47c-0.99,0.32-1.86,0.81-2.62,1.48
			c-0.76,0.67-1.39,1.54-1.87,2.6c-0.48,1.06-0.73,2.32-0.73,3.77v2.29h16.07V55.81z"/>
		<path class="st23" d="M128.99,69.71c0.11-0.3,0.24-0.64,0.39-1.03c0.15-0.39,0.39-1.05,0.73-1.98c0.33-0.93,0.8-2.22,1.39-3.88
			c0.6-1.66,1.38-3.92,2.34-6.78c0.63-1.75,1.26-3.49,1.9-5.22c0.63-1.73,1.23-3.47,1.79-5.22h2.79c-1.67,4.58-3.34,9.15-5,13.73
			c-1.66,4.58-3.32,9.14-5,13.67h-2.68c-1.71-4.54-3.37-9.1-4.97-13.67c-1.6-4.58-3.24-9.15-4.91-13.73h2.73l3.68,10.38
			c0.82,2.31,1.61,4.59,2.37,6.84C127.32,65.07,128.13,67.37,128.99,69.71z"/>
	</g>
</g>
</svg>
