<?xml version="1.0" encoding="utf-8"?>
<!-- Generator: Adobe Illustrator 23.0.5, SVG Export Plug-In . SVG Version: 6.00 Build 0)  -->
<svg version="1.1" id="Layer_1" xmlns="http://www.w3.org/2000/svg" xmlns:xlink="http://www.w3.org/1999/xlink" x="0px" y="0px"
	 viewBox="0 0 308 126" style="enable-background:new 0 0 308 126;" xml:space="preserve">
<style type="text/css">
	.st0{fill:#07407D;}
	.st1{fill:#A50949;}
	.st2{fill:#A6094A;}
	.st3{fill:#1BA6E3;}
	.st4{fill:#1BA5DF;}
	.st5{fill:#1BA5E2;}
	.st6{fill:#166BA1;}
	.st7{fill:#3BAC93;}
	.st8{fill:#1E2E5C;}
	.st9{fill:#6DB246;}
	.st10{fill:#186B9E;}
	.st11{fill:#3AAB90;}
	.st12{fill:#07407C;}
	.st13{fill:none;stroke:#07407C;stroke-miterlimit:10;}
	.st14{fill:#4C262D;}
	.st15{fill:#66215B;}
	.st16{fill:#997097;}
	.st17{fill:#E73C1E;}
	.st18{fill:#73243B;}
	.st19{fill:#4D3D7E;}
	.st20{fill:#5D5E5F;}
	.st21{fill:#4674C1;}
	.st22{fill:none;stroke:#07407D;stroke-width:2;stroke-miterlimit:10;}
	.st23{fill:none;stroke:#66215B;stroke-width:2;stroke-miterlimit:10;}
	.st24{fill:#4D2432;}
	.st25{fill:#5F2361;}
	.st26{fill:#9D74A0;}
	.st27{fill:#5E2260;}
	.st28{fill:#C51315;}
	.st29{fill:#975B67;}
	.st30{fill:#1E193D;}
	.st31{fill:#AA9EC2;}
	.st32{fill:#4D3D7E;stroke:#134274;stroke-miterlimit:10;}
	.st33{stroke:#000000;stroke-miterlimit:10;}
	.st34{fill:#606060;}
	.st35{fill:none;stroke:#676565;stroke-width:0.5;stroke-miterlimit:10;}
	.st36{fill:none;stroke:#1E1E1D;stroke-width:0.25;stroke-miterlimit:10;}
	.st37{fill:#F58020;}
	.st38{fill:#EF402A;}
</style>
<g>
	<g>
		<g>
			<path class="st15" d="M216.01,25.24c-1.48,0-2.69-1.21-2.69-2.69s1.21-2.69,2.69-2.69c1.48,0,2.69,1.21,2.69,2.69
				S217.49,25.24,216.01,25.24z M216.01,20.26c-1.26,0-2.29,1.03-2.29,2.29s1.03,2.29,2.29,2.29s2.29-1.03,2.29-2.29
				S217.27,20.26,216.01,20.26z"/>
		</g>
	</g>
	<g>
		<path class="st15" d="M215.17,21.06c0.19-0.04,0.46-0.06,0.72-0.06c0.4,0,0.66,0.07,0.84,0.22c0.15,0.12,0.23,0.31,0.23,0.52
			c0,0.36-0.24,0.6-0.55,0.69v0.01c0.22,0.07,0.36,0.27,0.43,0.55c0.09,0.38,0.16,0.64,0.22,0.74h-0.39
			c-0.05-0.08-0.11-0.31-0.19-0.65c-0.09-0.37-0.24-0.52-0.58-0.53h-0.35v1.18h-0.37V21.06z M215.55,22.29h0.38
			c0.4,0,0.65-0.21,0.65-0.52c0-0.35-0.27-0.5-0.67-0.51c-0.18,0-0.31,0.02-0.37,0.03V22.29z"/>
	</g>
</g>
<polygon class="st15" points="152.73,20.1 152.73,23.72 164.14,23.72 164.14,44.97 167.98,44.97 167.98,23.79 179.62,23.79 
	179.62,20.1 "/>
<rect x="145.87" y="20.1" class="st15" width="3.99" height="24.87"/>
<rect x="182.29" y="20.1" class="st15" width="3.95" height="24.87"/>
<g>
	<path class="st15" d="M55.91,72.84H54.2l-0.68-1.77H50.4l-0.64,1.77h-1.67l3.03-7.79h1.66L55.91,72.84z M53.01,69.76l-1.07-2.89
		l-1.05,2.89H53.01z"/>
	<path class="st15" d="M61.72,69.98l1.52,0.48c-0.23,0.85-0.62,1.48-1.17,1.89c-0.54,0.41-1.23,0.62-2.07,0.62
		c-1.03,0-1.88-0.35-2.55-1.06c-0.67-0.71-1-1.67-1-2.9c0-1.3,0.33-2.3,1-3.02c0.67-0.72,1.55-1.08,2.64-1.08
		c0.95,0,1.73,0.28,2.32,0.85c0.35,0.33,0.62,0.81,0.8,1.43l-1.56,0.37c-0.09-0.4-0.28-0.72-0.58-0.96s-0.65-0.35-1.07-0.35
		c-0.58,0-1.05,0.21-1.41,0.62s-0.54,1.09-0.54,2.01c0,0.98,0.18,1.69,0.53,2.1c0.35,0.42,0.81,0.63,1.38,0.63
		c0.42,0,0.78-0.13,1.08-0.4C61.38,70.96,61.59,70.55,61.72,69.98z"/>
	<path class="st15" d="M69.58,69.98l1.52,0.48c-0.23,0.85-0.62,1.48-1.17,1.89c-0.54,0.41-1.23,0.62-2.07,0.62
		c-1.03,0-1.88-0.35-2.55-1.06c-0.67-0.71-1-1.67-1-2.9c0-1.3,0.33-2.3,1-3.02c0.67-0.72,1.55-1.08,2.64-1.08
		c0.95,0,1.73,0.28,2.32,0.85c0.35,0.33,0.62,0.81,0.8,1.43l-1.56,0.37c-0.09-0.4-0.28-0.72-0.58-0.96
		c-0.29-0.23-0.65-0.35-1.07-0.35c-0.58,0-1.05,0.21-1.41,0.62c-0.36,0.41-0.54,1.09-0.54,2.01c0,0.98,0.18,1.69,0.53,2.1
		c0.35,0.42,0.81,0.63,1.38,0.63c0.42,0,0.78-0.13,1.08-0.4C69.23,70.96,69.45,70.55,69.58,69.98z"/>
	<path class="st15" d="M72.46,72.84v-7.79h3.31c0.83,0,1.44,0.07,1.81,0.21c0.38,0.14,0.68,0.39,0.91,0.75
		c0.23,0.36,0.34,0.77,0.34,1.23c0,0.58-0.17,1.07-0.52,1.45c-0.34,0.38-0.86,0.62-1.54,0.72c0.34,0.2,0.62,0.42,0.84,0.65
		c0.22,0.24,0.52,0.66,0.9,1.26l0.95,1.52h-1.88l-1.14-1.7c-0.4-0.6-0.68-0.99-0.83-1.14c-0.15-0.16-0.31-0.27-0.47-0.32
		c-0.17-0.06-0.43-0.09-0.79-0.09h-0.32v3.25H72.46z M74.03,68.34h1.16c0.75,0,1.23-0.03,1.41-0.1c0.19-0.06,0.33-0.17,0.44-0.33
		c0.11-0.16,0.16-0.35,0.16-0.58c0-0.26-0.07-0.47-0.21-0.63c-0.14-0.16-0.34-0.26-0.59-0.31c-0.13-0.02-0.51-0.03-1.15-0.03h-1.23
		V68.34z"/>
	<path class="st15" d="M80.31,72.84v-7.79h5.77v1.32h-4.2v1.73h3.91v1.31h-3.91v2.12h4.35v1.31H80.31z"/>
	<path class="st15" d="M87.56,65.05h2.87c0.65,0,1.14,0.05,1.48,0.15c0.46,0.13,0.85,0.37,1.17,0.72c0.33,0.34,0.57,0.76,0.74,1.26
		c0.17,0.5,0.26,1.11,0.26,1.84c0,0.64-0.08,1.19-0.24,1.66c-0.19,0.57-0.47,1.02-0.83,1.38c-0.27,0.27-0.64,0.47-1.1,0.62
		c-0.35,0.11-0.81,0.16-1.39,0.16h-2.96V65.05z M89.14,66.37v5.16h1.17c0.44,0,0.76-0.02,0.95-0.07c0.26-0.06,0.47-0.17,0.63-0.32
		c0.17-0.15,0.31-0.4,0.41-0.75c0.11-0.35,0.16-0.82,0.16-1.43c0-0.6-0.05-1.06-0.16-1.39c-0.11-0.32-0.26-0.57-0.45-0.76
		c-0.19-0.18-0.43-0.3-0.73-0.37c-0.22-0.05-0.65-0.07-1.29-0.07H89.14z"/>
	<path class="st15" d="M95.38,72.84v-7.79h1.57v7.79H95.38z"/>
	<path class="st15" d="M100.2,72.84v-6.47h-2.31v-1.32h6.19v1.32h-2.31v6.47H100.2z"/>
	<path class="st15" d="M105.09,72.84v-7.79h5.77v1.32h-4.2v1.73h3.91v1.31h-3.91v2.12h4.35v1.31H105.09z"/>
	<path class="st15" d="M112.35,65.05h2.87c0.65,0,1.14,0.05,1.48,0.15c0.46,0.13,0.85,0.37,1.17,0.72c0.33,0.34,0.57,0.76,0.74,1.26
		c0.17,0.5,0.26,1.11,0.26,1.84c0,0.64-0.08,1.19-0.24,1.66c-0.19,0.57-0.47,1.02-0.83,1.38c-0.27,0.27-0.64,0.47-1.1,0.62
		c-0.35,0.11-0.81,0.16-1.39,0.16h-2.96V65.05z M113.92,66.37v5.16h1.17c0.44,0,0.76-0.02,0.95-0.07c0.26-0.06,0.47-0.17,0.63-0.32
		c0.17-0.15,0.31-0.4,0.41-0.75c0.11-0.35,0.16-0.82,0.16-1.43c0-0.6-0.05-1.06-0.16-1.39c-0.11-0.32-0.26-0.57-0.45-0.76
		c-0.19-0.18-0.43-0.3-0.73-0.37c-0.22-0.05-0.65-0.07-1.29-0.07H113.92z"/>
	<path class="st15" d="M124.98,72.84v-6.47h-2.31v-1.32h6.19v1.32h-2.31v6.47H124.98z"/>
	<path class="st15" d="M129.88,72.84v-7.79h3.31c0.83,0,1.44,0.07,1.81,0.21c0.38,0.14,0.68,0.39,0.91,0.75
		c0.23,0.36,0.34,0.77,0.34,1.23c0,0.58-0.17,1.07-0.52,1.45c-0.34,0.38-0.86,0.62-1.54,0.72c0.34,0.2,0.62,0.42,0.84,0.65
		c0.22,0.24,0.52,0.66,0.9,1.26l0.95,1.52H135l-1.14-1.7c-0.4-0.6-0.68-0.99-0.83-1.14c-0.15-0.16-0.31-0.27-0.47-0.32
		c-0.17-0.06-0.43-0.09-0.79-0.09h-0.32v3.25H129.88z M131.45,68.34h1.16c0.75,0,1.23-0.03,1.41-0.1c0.19-0.06,0.33-0.17,0.44-0.33
		c0.11-0.16,0.16-0.35,0.16-0.58c0-0.26-0.07-0.47-0.21-0.63c-0.14-0.16-0.34-0.26-0.59-0.31c-0.13-0.02-0.51-0.03-1.15-0.03h-1.23
		V68.34z"/>
	<path class="st15" d="M144.76,72.84h-1.71l-0.68-1.77h-3.11l-0.64,1.77h-1.67l3.03-7.79h1.66L144.76,72.84z M141.86,69.76
		l-1.07-2.89l-1.05,2.89H141.86z"/>
	<path class="st15" d="M145.54,72.84v-7.79h1.57v7.79H145.54z"/>
	<path class="st15" d="M148.63,72.84v-7.79h1.53l3.19,5.2v-5.2h1.46v7.79h-1.58l-3.14-5.08v5.08H148.63z"/>
	<path class="st15" d="M156.42,72.84v-7.79H158v7.79H156.42z"/>
	<path class="st15" d="M159.51,72.84v-7.79h1.53l3.19,5.2v-5.2h1.46v7.79h-1.58l-3.14-5.08v5.08H159.51z"/>
	<path class="st15" d="M170.97,69.98v-1.31h3.39v3.1c-0.33,0.32-0.81,0.6-1.43,0.84c-0.63,0.24-1.26,0.36-1.9,0.36
		c-0.81,0-1.52-0.17-2.13-0.51c-0.61-0.34-1.06-0.83-1.37-1.47c-0.3-0.64-0.46-1.33-0.46-2.07c0-0.81,0.17-1.53,0.51-2.16
		c0.34-0.63,0.84-1.11,1.49-1.45c0.5-0.26,1.12-0.39,1.86-0.39c0.97,0,1.72,0.2,2.27,0.61c0.54,0.41,0.89,0.97,1.05,1.68l-1.56,0.29
		c-0.11-0.38-0.32-0.68-0.62-0.91c-0.3-0.22-0.68-0.33-1.13-0.33c-0.69,0-1.23,0.22-1.64,0.65c-0.41,0.44-0.61,1.08-0.61,1.94
		c0,0.92,0.21,1.62,0.62,2.08c0.41,0.46,0.95,0.69,1.61,0.69c0.33,0,0.66-0.06,0.99-0.19c0.33-0.13,0.62-0.29,0.85-0.47v-0.99
		H170.97z"/>
	<path class="st15" d="M178.52,68.99c0-0.79,0.12-1.46,0.36-2c0.18-0.4,0.42-0.75,0.73-1.07c0.31-0.31,0.64-0.55,1.01-0.7
		c0.49-0.21,1.04-0.31,1.68-0.31c1.15,0,2.07,0.36,2.75,1.07c0.69,0.71,1.03,1.7,1.03,2.97c0,1.26-0.34,2.24-1.03,2.95
		c-0.68,0.71-1.6,1.07-2.74,1.07c-1.16,0-2.08-0.35-2.76-1.06C178.86,71.21,178.52,70.23,178.52,68.99z M180.14,68.94
		c0,0.88,0.2,1.55,0.61,2.01c0.41,0.45,0.92,0.68,1.55,0.68c0.63,0,1.14-0.23,1.54-0.68c0.4-0.45,0.6-1.13,0.6-2.03
		c0-0.89-0.2-1.56-0.59-2s-0.91-0.66-1.56-0.66s-1.17,0.22-1.57,0.67S180.14,68.04,180.14,68.94z"/>
	<path class="st15" d="M187.3,72.84v-7.79h3.31c0.83,0,1.44,0.07,1.81,0.21c0.38,0.14,0.68,0.39,0.91,0.75
		c0.23,0.36,0.34,0.77,0.34,1.23c0,0.58-0.17,1.07-0.52,1.45c-0.34,0.38-0.86,0.62-1.54,0.72c0.34,0.2,0.62,0.42,0.84,0.65
		c0.22,0.24,0.52,0.66,0.9,1.26l0.95,1.52h-1.88l-1.14-1.7c-0.4-0.6-0.68-0.99-0.83-1.14c-0.15-0.16-0.31-0.27-0.47-0.32
		c-0.17-0.06-0.43-0.09-0.79-0.09h-0.32v3.25H187.3z M188.88,68.34h1.16c0.75,0,1.23-0.03,1.41-0.1c0.19-0.06,0.33-0.17,0.44-0.33
		c0.11-0.16,0.16-0.35,0.16-0.58c0-0.26-0.07-0.47-0.21-0.63c-0.14-0.16-0.34-0.26-0.59-0.31c-0.13-0.02-0.51-0.03-1.15-0.03h-1.23
		V68.34z"/>
	<path class="st15" d="M198.78,69.98v-1.31h3.39v3.1c-0.33,0.32-0.81,0.6-1.43,0.84s-1.26,0.36-1.9,0.36
		c-0.81,0-1.52-0.17-2.13-0.51c-0.61-0.34-1.06-0.83-1.37-1.47c-0.3-0.64-0.46-1.33-0.46-2.07c0-0.81,0.17-1.53,0.51-2.16
		c0.34-0.63,0.84-1.11,1.49-1.45c0.5-0.26,1.12-0.39,1.86-0.39c0.97,0,1.72,0.2,2.27,0.61c0.54,0.41,0.89,0.97,1.05,1.68l-1.56,0.29
		c-0.11-0.38-0.32-0.68-0.62-0.91c-0.3-0.22-0.68-0.33-1.13-0.33c-0.69,0-1.23,0.22-1.64,0.65c-0.41,0.44-0.61,1.08-0.61,1.94
		c0,0.92,0.21,1.62,0.62,2.08c0.41,0.46,0.95,0.69,1.61,0.69c0.33,0,0.66-0.06,0.99-0.19c0.33-0.13,0.62-0.29,0.85-0.47v-0.99
		H198.78z"/>
	<path class="st15" d="M210.64,72.84h-1.71l-0.68-1.77h-3.11l-0.64,1.77h-1.67l3.03-7.79h1.66L210.64,72.84z M207.75,69.76
		l-1.07-2.89l-1.05,2.89H207.75z"/>
	<path class="st15" d="M211.49,72.84v-7.79h1.53l3.19,5.2v-5.2h1.46v7.79h-1.58l-3.14-5.08v5.08H211.49z"/>
	<path class="st15" d="M219.29,72.84v-7.79h1.57v7.79H219.29z"/>
	<path class="st15" d="M221.68,72.84v-1.42l4.09-5.05h-3.63v-1.32h5.7v1.22l-4.27,5.25h4.43v1.31H221.68z"/>
	<path class="st15" d="M236.03,72.84h-1.71l-0.68-1.77h-3.11l-0.64,1.77h-1.67l3.03-7.79h1.66L236.03,72.84z M233.13,69.76
		l-1.07-2.89l-1.05,2.89H233.13z"/>
	<path class="st15" d="M237.8,72.84v-6.47h-2.31v-1.32h6.19v1.32h-2.31v6.47H237.8z"/>
	<path class="st15" d="M242.65,72.84v-7.79h1.57v7.79H242.65z"/>
	<path class="st15" d="M245.4,68.99c0-0.79,0.12-1.46,0.36-2c0.18-0.4,0.42-0.75,0.73-1.07c0.31-0.31,0.64-0.55,1.01-0.7
		c0.49-0.21,1.04-0.31,1.68-0.31c1.15,0,2.07,0.36,2.75,1.07c0.69,0.71,1.03,1.7,1.03,2.97c0,1.26-0.34,2.24-1.03,2.95
		c-0.68,0.71-1.6,1.07-2.74,1.07c-1.16,0-2.08-0.35-2.76-1.06C245.74,71.21,245.4,70.23,245.4,68.99z M247.02,68.94
		c0,0.88,0.2,1.55,0.61,2.01c0.41,0.45,0.92,0.68,1.55,0.68c0.63,0,1.14-0.23,1.54-0.68c0.4-0.45,0.6-1.13,0.6-2.03
		c0-0.89-0.2-1.56-0.59-2s-0.91-0.66-1.56-0.66s-1.17,0.22-1.57,0.67S247.02,68.04,247.02,68.94z"/>
	<path class="st15" d="M254.2,72.84v-7.79h1.53l3.19,5.2v-5.2h1.46v7.79h-1.58l-3.14-5.08v5.08H254.2z"/>
</g>
<g>
	<path class="st15" d="M113.06,102.13c0-0.73,0.11-1.35,0.33-1.84c0.16-0.37,0.39-0.69,0.67-0.99c0.28-0.29,0.59-0.51,0.93-0.65
		c0.45-0.19,0.96-0.28,1.55-0.28c1.06,0,1.91,0.33,2.54,0.99c0.64,0.66,0.95,1.57,0.95,2.74c0,1.16-0.32,2.07-0.95,2.72
		c-0.63,0.66-1.47,0.98-2.53,0.98c-1.07,0-1.92-0.33-2.55-0.98C113.37,104.17,113.06,103.27,113.06,102.13z M114.55,102.08
		c0,0.81,0.19,1.43,0.56,1.85c0.38,0.42,0.85,0.63,1.43,0.63c0.58,0,1.05-0.21,1.42-0.63c0.37-0.42,0.56-1.04,0.56-1.88
		c0-0.82-0.18-1.44-0.54-1.84c-0.36-0.41-0.84-0.61-1.44-0.61c-0.6,0-1.08,0.21-1.45,0.62
		C114.74,100.63,114.55,101.25,114.55,102.08z"/>
	<path class="st15" d="M121.18,105.68v-7.19h1.41l2.94,4.8v-4.8h1.35v7.19h-1.46l-2.9-4.69v4.69H121.18z"/>
	<path class="st15" d="M131.21,98.49h2.87c0.57,0,0.99,0.02,1.27,0.07c0.28,0.05,0.53,0.15,0.75,0.3c0.22,0.15,0.4,0.35,0.55,0.6
		c0.15,0.25,0.22,0.53,0.22,0.84c0,0.34-0.09,0.65-0.27,0.93s-0.43,0.49-0.74,0.63c0.44,0.13,0.77,0.35,1.01,0.65
		c0.24,0.31,0.35,0.67,0.35,1.08c0,0.33-0.08,0.65-0.23,0.95c-0.15,0.31-0.36,0.56-0.62,0.74c-0.26,0.18-0.59,0.3-0.97,0.34
		c-0.24,0.03-0.83,0.04-1.75,0.05h-2.45V98.49z M132.66,99.69v1.66h0.95c0.57,0,0.92-0.01,1.05-0.02c0.25-0.03,0.44-0.12,0.59-0.26
		c0.14-0.14,0.21-0.33,0.21-0.56c0-0.22-0.06-0.4-0.18-0.54c-0.12-0.14-0.3-0.22-0.55-0.25c-0.14-0.02-0.56-0.02-1.24-0.02H132.66z
		 M132.66,102.55v1.92h1.34c0.52,0,0.85-0.01,1-0.04c0.22-0.04,0.39-0.14,0.53-0.29c0.14-0.15,0.2-0.36,0.2-0.61
		c0-0.22-0.05-0.4-0.16-0.55c-0.1-0.15-0.26-0.26-0.45-0.33c-0.2-0.07-0.63-0.1-1.29-0.1H132.66z"/>
	<path class="st15" d="M138.46,105.68v-7.19h5.33v1.22h-3.88v1.59h3.61v1.21h-3.61v1.96h4.02v1.21H138.46z"/>
	<path class="st15" d="M145.16,105.68v-7.19h1.45v2.83h2.84v-2.83h1.45v7.19h-1.45v-3.14h-2.84v3.14H145.16z"/>
	<path class="st15" d="M158.89,105.68h-1.58l-0.63-1.63h-2.87l-0.59,1.63h-1.54l2.8-7.19h1.53L158.89,105.68z M156.22,102.84
		l-0.99-2.67l-0.97,2.67H156.22z"/>
	<path class="st15" d="M159.7,105.68v-7.13h1.45v5.92h3.61v1.21H159.7z"/>
	<path class="st15" d="M165.81,105.68v-7.19h4.93v1.22h-3.48v1.7h3v1.22h-3v3.05H165.81z"/>
	<path class="st15" d="M174.43,102.13c0-0.73,0.11-1.35,0.33-1.84c0.16-0.37,0.39-0.69,0.67-0.99c0.28-0.29,0.59-0.51,0.93-0.65
		c0.45-0.19,0.96-0.28,1.55-0.28c1.06,0,1.91,0.33,2.54,0.99c0.64,0.66,0.95,1.57,0.95,2.74c0,1.16-0.32,2.07-0.95,2.72
		c-0.63,0.66-1.47,0.98-2.53,0.98c-1.07,0-1.92-0.33-2.55-0.98C174.75,104.17,174.43,103.27,174.43,102.13z M175.93,102.08
		c0,0.81,0.19,1.43,0.56,1.85c0.38,0.42,0.85,0.63,1.43,0.63c0.58,0,1.05-0.21,1.42-0.63c0.37-0.42,0.56-1.04,0.56-1.88
		c0-0.82-0.18-1.44-0.54-1.84c-0.36-0.41-0.84-0.61-1.44-0.61c-0.6,0-1.08,0.21-1.45,0.62
		C176.11,100.63,175.93,101.25,175.93,102.08z"/>
	<path class="st15" d="M182.55,105.68v-7.19h4.93v1.22H184v1.7h3v1.22h-3v3.05H182.55z"/>
</g>
<g>
	<path d="M29.83,97.65c0,0.5-0.08,0.98-0.24,1.44c-0.16,0.47-0.41,0.88-0.75,1.23c-0.34,0.35-0.79,0.64-1.34,0.86
		c-0.55,0.22-1.22,0.33-2,0.33h-2.59v5.21h-1.81V93.76h4.31c1.41,0,2.49,0.32,3.26,0.96C29.45,95.36,29.83,96.34,29.83,97.65z
		 M28,97.64c0-0.74-0.2-1.34-0.61-1.77c-0.41-0.43-1.08-0.65-2.02-0.65h-2.46v4.84h2.48c0.51,0,0.93-0.07,1.26-0.2
		c0.33-0.14,0.6-0.32,0.81-0.54c0.2-0.22,0.34-0.48,0.42-0.77C27.96,98.25,28,97.95,28,97.64z"/>
	<path d="M37.66,105.07c-0.29,0.55-0.72,0.98-1.29,1.29c-0.57,0.32-1.22,0.47-1.95,0.47c-0.73,0-1.34-0.09-1.85-0.26
		c-0.51-0.17-0.92-0.45-1.25-0.83c-0.33-0.38-0.57-0.87-0.72-1.46c-0.15-0.6-0.23-1.32-0.23-2.16c0-0.58,0.05-1.16,0.16-1.72
		c0.11-0.56,0.31-1.07,0.59-1.52c0.28-0.45,0.67-0.81,1.17-1.08c0.49-0.27,1.13-0.41,1.9-0.41c1.22,0,2.16,0.33,2.8,1
		c0.65,0.66,0.97,1.58,0.97,2.75v1.43h-5.83c0,0.41,0.03,0.79,0.09,1.15c0.06,0.35,0.17,0.66,0.33,0.92
		c0.16,0.26,0.38,0.46,0.67,0.61c0.29,0.15,0.67,0.22,1.13,0.22c0.39,0,0.75-0.11,1.08-0.32c0.33-0.21,0.59-0.46,0.79-0.74
		L37.66,105.07z M36.21,101.36c0-0.85-0.17-1.49-0.51-1.92c-0.34-0.43-0.84-0.65-1.49-0.65c-0.75,0-1.27,0.23-1.56,0.69
		c-0.28,0.46-0.44,1.09-0.47,1.88H36.21z"/>
	<path d="M43.63,97.39c0.86,0,1.53,0.15,2.02,0.44c0.49,0.29,0.88,0.66,1.17,1.09c0.1,0.15,0.19,0.35,0.26,0.59
		c0.07,0.24,0.13,0.51,0.17,0.8c0.04,0.29,0.08,0.6,0.1,0.91c0.02,0.32,0.03,0.62,0.03,0.9c0,0.17-0.01,0.38-0.02,0.63
		c-0.01,0.25-0.04,0.51-0.08,0.78c-0.04,0.27-0.08,0.53-0.12,0.78c-0.04,0.25-0.09,0.45-0.15,0.6c-0.13,0.36-0.32,0.66-0.58,0.91
		c-0.25,0.25-0.54,0.45-0.87,0.6c-0.33,0.15-0.67,0.26-1.04,0.33c-0.37,0.07-0.75,0.1-1.14,0.1c-0.83,0-1.5-0.15-2.03-0.45
		c-0.53-0.3-0.92-0.68-1.19-1.15c-0.19-0.34-0.32-0.78-0.39-1.33c-0.07-0.55-0.11-1.13-0.11-1.74c0-0.58,0.03-1.14,0.1-1.68
		c0.07-0.53,0.18-0.97,0.34-1.3c0.29-0.56,0.73-1,1.33-1.32C42.02,97.56,42.76,97.39,43.63,97.39z M43.59,98.75
		c-0.42,0-0.79,0.09-1.13,0.26c-0.33,0.17-0.58,0.43-0.74,0.78c-0.1,0.23-0.18,0.57-0.23,1.01c-0.05,0.44-0.08,0.95-0.08,1.53
		c0,0.41,0.01,0.79,0.03,1.15c0.02,0.36,0.09,0.66,0.21,0.91c0.16,0.33,0.39,0.59,0.69,0.78c0.3,0.19,0.69,0.28,1.15,0.28
		c0.45,0,0.84-0.09,1.18-0.28c0.34-0.19,0.59-0.48,0.75-0.89c0.07-0.17,0.12-0.47,0.15-0.88c0.03-0.41,0.04-0.88,0.04-1.38
		c0-0.43-0.01-0.84-0.04-1.23c-0.03-0.39-0.09-0.7-0.17-0.92c-0.16-0.37-0.4-0.65-0.71-0.84C44.38,98.85,44.01,98.75,43.59,98.75z"
		/>
	<path d="M51.09,98.38c0.32-0.35,0.68-0.6,1.08-0.75c0.4-0.16,0.86-0.23,1.37-0.23c0.71,0,1.27,0.13,1.69,0.38
		c0.42,0.26,0.74,0.6,0.98,1.02c0.23,0.43,0.38,0.93,0.46,1.5c0.07,0.57,0.11,1.17,0.11,1.79c0,0.58-0.04,1.16-0.12,1.72
		c-0.08,0.56-0.24,1.07-0.49,1.52c-0.25,0.45-0.59,0.81-1.04,1.08c-0.45,0.27-1.03,0.41-1.76,0.41c-0.9,0-1.66-0.3-2.28-0.91h-0.04
		v4.54h-1.76V97.51h1.76v0.86c0.01,0,0.02,0,0.02,0.01S51.08,98.38,51.09,98.38z M52.98,105.33c0.45,0,0.81-0.09,1.07-0.26
		s0.46-0.41,0.61-0.7c0.14-0.29,0.24-0.63,0.28-1.01c0.04-0.38,0.07-0.79,0.07-1.23c0-0.45-0.02-0.87-0.07-1.27
		c-0.04-0.4-0.13-0.74-0.27-1.04c-0.14-0.3-0.34-0.54-0.6-0.72c-0.26-0.18-0.62-0.27-1.07-0.27c-0.52,0-0.92,0.12-1.2,0.34
		c-0.28,0.23-0.47,0.52-0.59,0.87c-0.12,0.35-0.18,0.73-0.18,1.15c-0.01,0.42-0.01,0.8-0.01,1.16c0,0.34,0.02,0.68,0.05,1.02
		c0.04,0.35,0.12,0.67,0.25,0.96c0.13,0.29,0.33,0.53,0.59,0.72C52.18,105.23,52.53,105.33,52.98,105.33z"/>
	<path d="M61.75,106.78c-0.86,0-1.53-0.16-2.02-0.47c-0.49-0.31-0.73-0.89-0.72-1.73V93.2h1.76v11.14c0,0.35,0.08,0.61,0.24,0.78
		s0.44,0.26,0.85,0.26h0.37v1.4H61.75z"/>
	<path d="M70.76,105.07c-0.29,0.55-0.72,0.98-1.29,1.29c-0.57,0.32-1.22,0.47-1.95,0.47c-0.73,0-1.34-0.09-1.85-0.26
		c-0.51-0.17-0.92-0.45-1.25-0.83c-0.33-0.38-0.57-0.87-0.72-1.46c-0.15-0.6-0.23-1.32-0.23-2.16c0-0.58,0.05-1.16,0.16-1.72
		c0.11-0.56,0.31-1.07,0.59-1.52c0.28-0.45,0.67-0.81,1.17-1.08c0.49-0.27,1.13-0.41,1.9-0.41c1.22,0,2.16,0.33,2.8,1
		c0.65,0.66,0.97,1.58,0.97,2.75v1.43h-5.83c0,0.41,0.03,0.79,0.09,1.15c0.06,0.35,0.17,0.66,0.33,0.92
		c0.16,0.26,0.38,0.46,0.67,0.61c0.29,0.15,0.67,0.22,1.13,0.22c0.39,0,0.75-0.11,1.08-0.32c0.33-0.21,0.59-0.46,0.79-0.74
		L70.76,105.07z M69.3,101.36c0-0.85-0.17-1.49-0.51-1.92c-0.34-0.43-0.84-0.65-1.49-0.65c-0.75,0-1.27,0.23-1.56,0.69
		c-0.28,0.46-0.44,1.09-0.47,1.88H69.3z"/>
	<path class="st17" d="M81.6,104.32c-0.26,0.82-0.77,1.44-1.51,1.87c-0.75,0.43-1.64,0.64-2.69,0.64c-0.68,0-1.3-0.1-1.85-0.29
		c-0.55-0.19-1.02-0.46-1.39-0.8c-0.38-0.34-0.67-0.75-0.87-1.22c-0.2-0.47-0.3-0.99-0.3-1.56v-5.44c0-0.55,0.1-1.06,0.29-1.53
		c0.2-0.47,0.48-0.88,0.86-1.22s0.84-0.61,1.39-0.81c0.55-0.2,1.18-0.3,1.87-0.3c1.03,0,1.92,0.22,2.67,0.65
		c0.75,0.43,1.26,1.04,1.53,1.82l-1.72,0.58c-0.15-0.47-0.42-0.85-0.84-1.14c-0.41-0.29-0.96-0.43-1.64-0.43
		c-0.42,0-0.79,0.06-1.12,0.2s-0.6,0.3-0.82,0.51c-0.22,0.21-0.38,0.46-0.5,0.74c-0.12,0.29-0.17,0.58-0.17,0.88V103
		c0,0.31,0.06,0.61,0.17,0.89c0.12,0.29,0.28,0.54,0.5,0.75c0.22,0.22,0.49,0.39,0.82,0.52c0.33,0.13,0.7,0.2,1.12,0.2
		c0.65,0,1.19-0.14,1.62-0.43c0.43-0.29,0.71-0.67,0.86-1.15L81.6,104.32z"/>
	<path class="st17" d="M90.19,105.07c-0.29,0.55-0.72,0.98-1.29,1.29c-0.57,0.32-1.22,0.47-1.95,0.47c-0.73,0-1.34-0.09-1.85-0.26
		c-0.51-0.17-0.92-0.45-1.25-0.83c-0.33-0.38-0.57-0.87-0.72-1.46c-0.15-0.6-0.23-1.32-0.23-2.16c0-0.58,0.05-1.16,0.16-1.72
		c0.11-0.56,0.31-1.07,0.59-1.52c0.28-0.45,0.67-0.81,1.17-1.08c0.49-0.27,1.13-0.41,1.9-0.41c1.22,0,2.16,0.33,2.8,1
		c0.65,0.66,0.97,1.58,0.97,2.75v1.43h-5.83c0,0.41,0.03,0.79,0.09,1.15c0.06,0.35,0.17,0.66,0.33,0.92
		c0.16,0.26,0.38,0.46,0.67,0.61c0.29,0.15,0.67,0.22,1.13,0.22c0.39,0,0.75-0.11,1.08-0.32c0.33-0.21,0.59-0.46,0.79-0.74
		L90.19,105.07z M88.73,101.36c0-0.85-0.17-1.49-0.51-1.92c-0.34-0.43-0.84-0.65-1.49-0.65c-0.75,0-1.27,0.23-1.56,0.69
		c-0.28,0.46-0.44,1.09-0.47,1.88H88.73z"/>
	<path class="st17" d="M94.44,98.62c0.33-0.48,0.71-0.81,1.13-0.98c0.42-0.17,0.92-0.25,1.5-0.25c0.42,0.02,0.75,0.09,0.98,0.2
		l-0.39,1.62c-0.35-0.14-0.7-0.21-1.07-0.21c-0.67,0-1.2,0.16-1.61,0.48c-0.41,0.32-0.61,0.82-0.61,1.52v5.72h-1.76v-9.2h1.76v1.1
		H94.44z"/>
	<path class="st17" d="M102.12,106.72c-0.83,0-1.45-0.2-1.86-0.6c-0.41-0.4-0.62-0.9-0.62-1.5v-5.88h-1.2v-1.23h1.2v-2.37h1.76v2.37
		h1.52v1.23h-1.52v5.44c0,0.38,0.09,0.67,0.26,0.86c0.17,0.19,0.46,0.29,0.85,0.29h0.59v1.4H102.12z"/>
</g>
<polygon class="st15" points="191.48,20.1 191.48,44.97 214.15,44.97 214.15,41.42 195.28,41.42 195.28,20.1 "/>
<g>
	<path class="st18" d="M271.51,95.25c1.76,0,3.18,0.58,4.26,1.73c1.02,1.09,1.53,2.46,1.53,4.11c0,1.71-0.54,3.11-1.61,4.2
		c-1.07,1.09-2.45,1.64-4.14,1.64c-1.77,0-3.23-0.55-4.37-1.64c-1.14-1.09-1.71-2.49-1.71-4.2c0-1.69,0.57-3.08,1.71-4.18
		C268.32,95.8,269.76,95.25,271.51,95.25z M271.47,96.66c-1.3,0-2.36,0.41-3.16,1.22c-0.8,0.81-1.21,1.88-1.21,3.19
		c0,1.32,0.4,2.39,1.21,3.21c0.81,0.81,1.87,1.22,3.18,1.22c1.21,0,2.21-0.42,3-1.25c0.79-0.83,1.18-1.89,1.18-3.18
		c0-1.19-0.36-2.21-1.09-3.06C273.8,97.11,272.76,96.66,271.47,96.66z"/>
	<path class="st18" d="M277.96,103.86l1.41-0.85c0.48,0.87,1.06,1.5,1.75,1.89c0.69,0.39,1.55,0.59,2.59,0.59
		c1.03,0,1.85-0.2,2.46-0.59c0.61-0.39,0.92-0.92,0.92-1.59c0-1.11-0.71-1.73-2.14-1.85l-3.18-0.24c-1.01-0.08-1.8-0.34-2.36-0.77
		c-0.26-0.2-0.47-0.48-0.63-0.82c-0.16-0.34-0.24-0.69-0.24-1.03c0-0.95,0.43-1.75,1.3-2.39c0.86-0.64,1.93-0.96,3.21-0.96
		c2.31,0,4.03,0.78,5.18,2.33l-1.3,0.71c-0.93-1.05-2.12-1.58-3.57-1.58c-0.97,0-1.76,0.16-2.35,0.47
		c-0.59,0.31-0.89,0.73-0.89,1.25c0,0.32,0.16,0.58,0.48,0.78c0.32,0.2,0.77,0.32,1.35,0.36l2.77,0.18
		c1.08,0.06,1.95,0.31,2.59,0.74c0.42,0.27,0.76,0.65,1.01,1.15c0.25,0.5,0.37,1.04,0.37,1.61c0,0.59-0.14,1.13-0.43,1.64
		c-0.28,0.51-0.67,0.91-1.14,1.19c-0.91,0.56-2.02,0.83-3.34,0.83c-1.38,0-2.52-0.24-3.43-0.72
		C279.45,105.72,278.65,104.94,277.96,103.86z"/>
</g>
<path class="st18" d="M230.65,95.72h-2l-5.53,10.66h1.99l1.32-2.75h6.36l1.4,2.75h1.96L230.65,95.72z M227.18,102.24l2.44-4.86
	l2.53,4.86H227.18z"/>
<polygon class="st18" points="234.94,95.58 238.75,100.89 236.15,104.65 236.98,106.38 239.91,102.24 242.7,106.38 244.92,106.38 
	241,100.98 243.45,97.38 242.62,95.58 239.93,99.53 237.24,95.58 "/>
<polygon class="st18" points="245.71,95.73 245.71,106.38 255.28,106.38 255.28,104.92 247.29,104.84 247.29,101.56 254,101.56 
	254,100.06 247.26,100.06 247.26,96.97 255.28,96.97 255.28,95.73 "/>
<polygon class="st18" points="256.22,95.73 256.22,106.38 266.05,106.38 266.05,104.95 257.73,104.95 257.73,95.73 "/>
<g>
	<path class="st15" d="M301.52,6.16v113.68H6.48V6.16H301.52 M303.52,4.16H4.48v117.68h299.04V4.16L303.52,4.16z"/>
</g>
<line class="st23" x1="17.21" y1="83.84" x2="291.15" y2="83.84"/>
<g>
	<path class="st24" d="M116.21,46.38c0,0-3.27-1.5-5.63-3.8c-1.84-1.8-3.43-4.84-2.45-10c0.78-4.13,4.73-10.69,13.67-9.76
		l-3.43-3.01l-6.62-0.24l-4.79,2.02c0,0-4.49,4.02-5.53,8.23c-0.72,2.89-0.87,7.14,2.44,11.66c3.98,5.45,8.68,5.13,8.68,5.13
		L116.21,46.38z"/>
	<path class="st25" d="M116.11,48.65c0,0-4-0.23-7.46-2.45c-3.43-2.2-4.93-4.22-5.89-6.43c0,0,3.27,4.34,6.64,5.47
		c2.59,0.87,7.4,1.62,10.88-1.01l2.52,0.91l-5.97,3.8L116.11,48.65z"/>
	<path class="st24" d="M114.04,49.37c0,0-3.14,1.88-10.1-3.37c-2.82-2.12-6.19-6.65-6.26-12.9c-0.06-5.95,3.97-15.66,15.52-17.3
		l-2.53-2.09h-8.18l-3.13,2.65l-5.15,4.38l-1.88,2.79c0,0-2.98,3.61-2.65,10.06c0,0-0.19,6.93,3.56,10.78
		c3.75,3.85,6.69,5.77,6.69,5.77l12.08,2.02l3.46-0.38L114.04,49.37z"/>
	<path class="st26" d="M128.96,46.43c0,0-3.51,4.58-9.58,6.74c-3.16,1.12-8.33,2.51-15.3,0c-8.95-3.22-12.48-11.06-12.64-11.37
		c-0.2-0.39-0.3-0.72-0.5-1.14c0,0,3.51,7.51,12.85,9.53c3.52,0.76,9.89,0.08,14-3.56c2.66-2.35,6.64-5.94,7.55-13.14
		c0.5-3.92,0.11-11.18-9.09-12.94c-3.84-0.74-10.03-0.36-13.97,7.06c0,0,2.23-9,14.07-10.56l9.77,1.67l6.45,15.25v9.38L128.96,46.43
		z"/>
	<path class="st27" d="M141.23,53.65c0,0-9.19,1.8-12.7-7.12c-1.03-2.62-1.47-4.87-1.4-11.16c0.03-2.78-1.19-10.75-7.89-16.22
		c-2.57-2.1-6.19-4.35-12.65-4.04c-5.2,0.25-12.11,3.44-16.34,12.96c0,0,2.26-12.24,16.17-16.41c6.06-1.82,16.05-1.62,24.12,7.7
		c3.05,3.53,6.13,10.1,4.81,18.03C134.63,41.65,133.03,52.98,141.23,53.65z"/>
</g>
<g>
	<path class="st18" d="M210.82,108.37c0,0-1.51-0.69-2.59-1.75c-0.85-0.83-1.58-2.23-1.13-4.61c0.36-1.9,2.18-4.93,6.3-4.5
		l-1.58-1.39l-3.05-0.11l-2.21,0.93c0,0-2.07,1.85-2.55,3.79c-0.33,1.33-0.4,3.29,1.12,5.37c1.84,2.51,4,2.37,4,2.37L210.82,108.37z
		"/>
	<path class="st28" d="M210.77,109.41c0,0-1.74-0.19-3.44-1.13c-1.64-0.91-2.27-1.94-2.71-2.96c0,0,1.51,2,3.06,2.52
		c1.19,0.4,3.41,0.75,5.01-0.47l1.16,0.42l-2.75,1.75L210.77,109.41z"/>
	<path class="st18" d="M209.82,109.75c0,0-1.45,0.86-4.66-1.55c-1.3-0.98-2.85-3.06-2.88-5.94c-0.03-2.74,1.82-7.23,7.14-7.98
		l-1.15-0.96h-3.77l-1.44,1.22l-2.37,2.02l-0.86,1.29c0,0-1.37,1.66-1.22,4.63c0,0-0.09,3.19,1.64,4.97s3.08,2.66,3.08,2.66
		l5.57,0.93l1.6-0.18L209.82,109.75z"/>
	<path class="st29" d="M216.69,108.39c0,0-1.62,2.11-4.41,3.1c-1.46,0.52-3.84,1.16-7.05,0c-4.12-1.49-5.75-5.09-5.82-5.24
		c-0.09-0.18-0.14-0.33-0.23-0.52c0,0,1.62,3.46,5.92,4.39c1.62,0.35,4.56,0.04,6.45-1.64c1.22-1.08,3.06-2.74,3.48-6.05
		c0.23-1.81,0.05-5.15-4.19-5.96c-1.77-0.34-4.62-0.17-6.44,3.25c0,0,1.03-4.15,6.48-4.87l4.5,0.77l2.97,7.03v4.32L216.69,108.39z"
		/>
	<path class="st28" d="M222.35,111.72c0,0-4.23,0.83-5.85-3.28c-0.48-1.21-0.68-2.25-0.64-5.14c0.01-1.28-0.55-4.95-3.64-7.47
		c-1.19-0.97-2.85-2-5.83-1.86c-2.4,0.11-5.58,1.58-7.53,5.97c0,0,1.04-5.64,7.45-7.56c2.79-0.84,7.4-0.74,11.12,3.55
		c1.41,1.62,2.82,4.66,2.22,8.31C219.31,106.19,218.57,111.41,222.35,111.72z"/>
</g>
</svg>
